<?xml version="1.0" encoding="UTF-8"?>
<svg xmlns="http://www.w3.org/2000/svg" xmlns:xlink="http://www.w3.org/1999/xlink" viewBox="0 0 175.47 285.08">
  <defs>
    <style>
      .cls-1 {
        fill: #5e2a22;
      }

      .cls-2 {
        fill: #615e7c;
      }

      .cls-3 {
        fill: #9f687c;
      }

      .cls-4 {
        fill: #7ecbf2;
      }

      .cls-5 {
        fill: #ff9283;
      }

      .cls-6 {
        isolation: isolate;
      }

      .cls-7 {
        fill: #f29e7c;
      }

      .cls-8 {
        fill: #f4d0b8;
      }

      .cls-9 {
        fill: #5fb3ed;
      }

      .cls-10 {
        fill: #464660;
      }

      .cls-11 {
        fill: #ed7e69;
      }

      .cls-12 {
        fill: #915a71;
      }

      .cls-13 {
        fill: #00326f;
      }

      .cls-14 {
        fill: #f9ae85;
      }

      .cls-15 {
        mix-blend-mode: multiply;
        opacity: .45;
      }

      .cls-16 {
        fill: #f7be59;
      }

      .cls-17 {
        clip-path: url(#clippath);
      }

      .cls-18 {
        fill: none;
      }

      .cls-19 {
        fill: #a34b4b;
      }

      .cls-20 {
        fill: #ffd685;
      }

      .cls-21 {
        fill: #e9edf4;
      }

      .cls-22 {
        fill: #ffc197;
      }

      .cls-23 {
        fill: #fc5954;
      }

      .cls-24 {
        fill: #b54848;
      }

      .cls-25 {
        fill: #fce2cd;
      }
    </style>
    <clipPath id="clippath">
      <path class="cls-18" d="m76.63,57.62c-1.49.67-3.07,1.14-4.69,1.39-.19.03-.31.22-.24.4.68,1.53,2.52,3.09,4.24,2.41.78-.31,1.51-.98,1.5-1.97,0-.7-.16-1.4-.4-2.07-.06-.16-.25-.24-.41-.16Z"/>
    </clipPath>
  </defs>
  <g class="cls-6">
    <g id="Layer_2" data-name="Layer 2">
      <g id="OBJECTS">
        <g>
          <ellipse class="cls-21" cx="87.74" cy="272.46" rx="87.74" ry="12.61"/>
          <g>
            <g>
              <g>
                <path class="cls-22" d="m72.13,262.99s-1.06,1.87-.15,2.84c2.38,2.51,5.58,2.87,8.73,4.36.29.14.62.37.57.68-.03.17-.16.3-.3.4-1.16.86-2.8.49-4.21.12-2.99-.79-4.68-1.21-7.74-1.61-1.14-.15-3.2.67-3.89-.23.12-1.12.26-2.39.62-3.52.35-1.13.4-1.53.05-2.67"/>
                <path class="cls-3" d="m65.17,268.14c1.57.58,3.24.92,4.92,1,.08,0,.18,0,.24-.05.06-.05.08-.14.09-.21.05-.4.03-.84.31-1.13.13-.13.3-.2.46-.26.45-.18.9-.32,1.37-.44.22-.05.45-.1.65,0,.18.08.28.26.4.41.44.57,1.13.89,1.79,1.18,2.71,1.17,4.1,1.86,6.96,2.54.98.23,2.66-.14,2.47,1.38-.07.58-.08,2.1-1.1,2.79-1.32.89-3.33.67-4.81.49-1.48-.18-2.85-.43-4.15-.56-1.41-.14-2.63-.17-4.03-.04-3.32.31-6.19-.69-6.53-1.36-.29-.57-.05-2.09.14-2.7.32-1.07.5-1.96.82-3.03"/>
                <path class="cls-25" d="m65.32,266.99c1.57.58,3.24.92,4.92,1,.08,0,.18,0,.24-.05.06-.05.08-.14.09-.21.04-.4.03-.84.31-1.13.13-.13.3-.2.46-.26.45-.18.9-.32,1.37-.44.22-.05.45-.1.65,0,.18.08.28.26.4.41.44.57,1.13.89,1.79,1.18,2.71,1.17,4.1,1.86,6.96,2.54.98.23,2.39.83,2.39,1.93,0,.59-.65,1.75-1.13,2.1-1.28.94-3.22.81-4.7.63-1.48-.18-2.85-.43-4.15-.56-1.41-.14-2.63-.17-4.03-.04-3.32.31-6.43-.78-6.77-1.45-.05-.95.19-2.01.37-2.62.32-1.07.5-1.96.82-3.03"/>
                <path class="cls-3" d="m73.47,265.57c-1.12-.72-2.03,0-2.89.73-.41.35-.07.43-.77.6-.44.11-1.21-.15-1.64-.22-.87-.14-1.77-.48-2.65-.32-.32.06-.48.5-.19.7.65.44,1.38.51,2.14.68.88.2,1.89.56,2.8.53.52-.01.71-.12,1.07-.49.47-.49-.01-.73.96-1.25.31-.16.76-.22,1.09-.33.26-.08.31-.48.08-.63h0Z"/>
                <path class="cls-3" d="m75.51,267c-.5-.37-1.25.07-1.68.37-.56.4-1.11,1.06-1.26,1.74-.06.27,0,.53.23.7.03.02.06.04.09.06.21.15.6.11.73-.13.27-.52.4-1.07.84-1.5.36-.35.94-.47,1.16-.93.05-.11-.01-.25-.1-.31h0Z"/>
                <path class="cls-3" d="m77.76,268.15c-.55-.28-1.22.15-1.6.45-.49.39-.93,1.01-.98,1.61-.02.24.07.46.33.59.03.02.06.03.09.05.23.11.61.05.7-.17.19-.47.23-.96.6-1.36.3-.33.86-.48,1-.9.03-.1-.05-.21-.15-.26h0Z"/>
                <path class="cls-3" d="m80.42,269.1c-.49-.25-1.11.14-1.45.41-.45.35-.84.91-.88,1.46-.02.22.07.42.3.53.03.01.06.03.09.04.2.1.55.05.63-.15.17-.42.21-.87.54-1.24.27-.3.78-.44.91-.81.03-.09-.05-.19-.14-.24h0Z"/>
              </g>
              <path class="cls-2" d="m57.52,137c-.06,26.54,5.62,39.54,4.26,65.58-.36,6.86-.49,18.08-.36,24.95.19,9.82,2.59,26.92,4.16,36.62,0,0,3.15,1.55,6.12.01.86-.93,9.59-37.13,11.39-68.86.61-10.69,0-38.98-1.12-53.32"/>
              <path class="cls-10" d="m68.1,160.47c1.42,26.93-.5,54.04-5.68,80.5-.54-4.99-.93-9.73-1-13.44-.14-6.87,0-18.09.36-24.95.35-6.73.23-12.59-.13-18.04,2.23-8,4.39-16.03,6.46-24.07Z"/>
            </g>
            <g>
              <g>
                <path class="cls-22" d="m45.64,264.51s-1.03,1.89-.1,2.84c2.42,2.47,5.63,2.77,8.8,4.21.29.13.62.36.58.67-.02.17-.15.3-.29.4-1.15.88-2.8.53-4.21.19-3-.74-4.69-1.13-7.77-1.48-1.14-.13-3.18.72-3.89-.17.1-1.12.22-2.39.56-3.53.34-1.14.38-1.54,0-2.67"/>
                <path class="cls-3" d="m38.77,269.77c1.58.56,3.26.87,4.94.92.08,0,.18,0,.24-.05.06-.05.07-.14.08-.22.04-.4.01-.84.29-1.13.12-.13.29-.2.46-.27.44-.18.9-.34,1.36-.46.21-.06.45-.11.65-.01.18.08.29.26.41.41.45.56,1.14.87,1.81,1.15,2.72,1.12,4.13,1.8,7,2.42.98.21,2.66-.19,2.49,1.34-.06.58-.04,2.1-1.05,2.8-1.31.91-3.32.73-4.8.57-1.49-.16-2.86-.38-4.16-.49-1.41-.12-2.63-.13-4.03.03-3.31.37-6.2-.59-6.55-1.25-.3-.56-.08-2.09.09-2.7.31-1.07.47-1.97.77-3.04"/>
                <path class="cls-25" d="m38.9,268.62c1.58.56,3.26.87,4.94.92.08,0,.18,0,.24-.05.06-.05.07-.14.08-.22.04-.4.01-.84.29-1.13.12-.13.29-.2.46-.27.44-.18.9-.34,1.36-.46.21-.06.45-.11.65-.01.18.08.29.26.41.41.45.56,1.14.87,1.81,1.15,2.72,1.12,4.13,1.8,7,2.42.98.21,2.4.79,2.42,1.89.01.59-.62,1.76-1.1,2.12-1.27.96-3.2.87-4.69.71-1.49-.16-2.86-.38-4.16-.49-1.41-.12-2.63-.13-4.03.03-3.31.37-6.44-.67-6.79-1.34-.07-.94.16-2.01.33-2.62.31-1.07.47-1.97.77-3.04"/>
                <path class="cls-3" d="m47.03,267.07c-1.13-.7-2.03.03-2.88.77-.41.36-.07.43-.76.61-.44.11-1.21-.13-1.64-.19-.88-.13-1.78-.45-2.65-.28-.32.06-.47.51-.17.7.66.43,1.39.48,2.16.64.88.18,1.9.52,2.8.49.52-.02.71-.13,1.06-.5.46-.5-.02-.73.94-1.27.3-.17.75-.23,1.09-.35.26-.09.3-.49.07-.63h0Z"/>
                <path class="cls-3" d="m49.09,268.46c-.5-.36-1.25.09-1.68.4-.56.41-1.09,1.08-1.23,1.76-.06.27,0,.53.24.69.03.02.06.04.09.06.21.14.6.1.73-.14.26-.52.38-1.08.82-1.51.36-.36.94-.49,1.15-.95.05-.11-.02-.25-.11-.31h0Z"/>
                <path class="cls-3" d="m51.35,269.57c-.55-.27-1.22.17-1.59.48-.49.4-.91,1.02-.95,1.62-.02.24.08.46.34.58.03.02.06.03.1.05.23.11.61.04.69-.18.18-.47.21-.96.58-1.37.3-.34.85-.5.99-.91.03-.1-.05-.21-.15-.26h0Z"/>
                <path class="cls-3" d="m54.03,270.48c-.5-.24-1.1.16-1.44.43-.44.36-.82.93-.86,1.47-.01.22.07.41.31.53.03.01.06.03.09.04.21.1.55.04.63-.16.16-.43.19-.87.52-1.24.27-.31.77-.45.89-.83.03-.09-.05-.19-.14-.24h0Z"/>
              </g>
              <path class="cls-2" d="m36.74,138.18c-.68,26.54,4.7,39.66,2.73,65.66-.52,6.85-2.06,19.25-2.09,26.12-.04,9.82.6,25.74,1.95,35.47,0,0,3.11,1.62,6.11.16,1.38-1.43,19.73-82.05,25.13-124.51"/>
              <path class="cls-10" d="m48.43,148.19c2.18-.63,4.43-.99,6.67-1.35,7.84-1.26,15.67-2.52,23.51-3.79.48-.08,1.01-.15,1.42.11.37.23.56.66.72,1.07.67,1.74,1.17,3.55,1.5,5.38.17.95.3,1.95.03,2.88-.7,2.47-4.02,2.42-6.07,2.71-2.72.39-5.47.68-8.13,1.4-3.66.99-2.96,6.58-4,9.64-.21.63-.5,1.31-1.1,1.59-.54.25-1.18.1-1.75-.09-3.12-1.04-5.94-2.98-8.03-5.52-2.45-3-5.83-2.1-9.08-.9-.71.26-1.43.53-1.97,1.05-.69.66-.99,1.63-1.59,2.37-.59.75-2.57.8-2.57.8,0,0-.36-3.79-.45-4.68-.16-1.55-.38-2.81-.27-4.36.22-2.93,1-5.31,2.17-7.91"/>
            </g>
            <g>
              <path class="cls-13" d="m76.53,37.25c2.73,4.59,4.65,10.03,3.5,15.24-.14.63-.4,1.34-1.01,1.57-.74.28-1.5-.31-2.04-.88-3.6-3.78-6.84-9.7-5.3-15.06"/>
              <path class="cls-22" d="m71.46,61.51c-1.3,3.47-2.65,7.45-.93,10.73,1.28,2.44,2.52,2.44,2.52,2.44,0,0-.02,7.55-3.94,7.77-4.88.27-9.79-3.23-13.74-5.65-1.03-.63-2.05-1.03-2.18-2.21,1.99-.67,3.98-1.81,5.37-3.36,1.12-1.25,2.37-10.97,2.89-14.36"/>
              <path class="cls-7" d="m70.14,65.59c-2.5.06-4.98-.42-7.42-.98,1.03,1.36,2.3,2.57,3.78,3.45,1,.6,2.11,1.02,3.26,1.26-.08-1.22.08-2.48.38-3.74Z"/>
              <path class="cls-22" d="m58.43,60.85c-1.37-1.51-2.74-3.04-3.76-4.8-1.02-1.76-1.67-3.78-1.46-5.79.26-2.48,1.77-4.65,3.29-6.65,1.28-1.68,2.61-3.36,4.31-4.64,1.93-1.45,4.28-2.34,6.7-2.58,2.01-.2,4.1.06,5.91.95,2.8,1.37,4.34,3.86,4.8,6.8.3,1.89.61,3.78.92,5.67.28,1.74.88,3.68.88,5.44.36,2.22.7,4.59-.25,6.64-2.48,5.37-9.67,5.98-15.16,3.81-2.18-.86-4.15-2.02-5.79-3.67"/>
              <path class="cls-13" d="m77.71,30.54c-.27-.82-1.97-5.94-3.4-4.81-.35.27-.35.88-.77,1.04.23-.09-.53-2.02-.81-2.18-.97-.57-1.58.96-2.16,1.41-.92.72-2.21.7-3.28,1.09-1.82.68-3.57,1.53-5.4,2.2-3.47,1.28-7.19,1.92-10.51,3.54-1.48.72-2.93,1.72-3.6,3.22-.6,1.35-.28,2.54-.17,3.93.07.96.24.63-.23,1.23-.35.44-1.12.59-1.5,1.17-.46.69-.68,1.51-.84,2.32-.82,4.14.6,8.4,2.7,11.94,1.02,1.72,2.24,3.27,3.58,4.75,1.22,1.36,3.16.85,4.31,2.28.2.25.42.58.74.54.12-.01.23-.08.34-.15l1.13-.74c.22-.15.46-.3.57-.55.09-.2.08-.44.07-.66-.08-1.13-.24-2.25-.49-3.36-.18-.79-.78-1.62-.87-2.38-.03-.23.09-.5.32-.56.49-.15.96.58,1.48.24.16-.1.21-.31.24-.49.21-1.34-.13-2.75-.93-3.85-1.01-1.38-2.44-4.03-.5-5.38.32-.22.7-.33,1.07-.44l9.24-2.68c2.5-.72,5.06-1.48,7.16-3.02,3.46-2.55,3.66-6.15,2.53-9.65Z"/>
              <path class="cls-22" d="m60.04,56.92c-.73-.35-1.5-.62-2.28-.83-.57-.15-1.2-.26-1.74-.01-.72.34-1.01,1.2-1.1,1.98-.06.52-.07,1.04.05,1.55.32,1.35,1.48,2.33,2.64,3.12.61.42,1.25.81,1.97,1.01.72.2,1.53.18,2.16-.2.64-.38,1.04-1.16.84-1.87"/>
              <path class="cls-7" d="m57.03,58.74c.06-.18.26-.27.44-.25.19.01.33.15.43.31.13.23.11.45.11.7,0,.28.08.52.27.73.35.41.92.48,1.36.75.2.12.39.28.52.48.15.24.14.46.19.72.06.32.51.27.59,0,.1-.31-.04-.72-.2-.99s-.4-.5-.66-.67-.57-.29-.87-.4c-.24-.09-.57-.23-.63-.51-.03-.17,0-.34-.03-.51-.02-.15-.06-.29-.13-.43-.12-.25-.32-.46-.58-.56-.44-.17-1.05.04-1.15.54-.04.22.26.3.33.09h0Z"/>
              <path class="cls-11" d="m68.57,56.96c-.09-.13-.3-.25-.7-.33-1.12-.24-2.44.39-3.26,1.11-.16.14-.32.34-.26.54.07.23.37.3.61.32.7.04,1.41-.07,2.07-.31.53-.19,1.86-.85,1.54-1.32Z"/>
              <path class="cls-11" d="m79.06,52.09c-.44-.69-1.4-.47-1.99-.12-.38.22-.79.62-.94,1.03-.16.45.18.77.64.78.42,0,.88-.21,1.25-.4.37-.19.76-.39,1.05-.79.13-.18.1-.36,0-.51Z"/>
              <path class="cls-7" d="m73.57,53.82c.23.2.48.36.77.45.08.02.16.04.24.06.07.01.17,0,.24.03.11.05.09.35.09.45,0,.3-.06.61-.18.89-.06.14-.13.27-.2.4s-.2.27-.2.42c0,.09.09.15.17.13.16-.03.28-.23.36-.35.1-.15.16-.31.22-.48.11-.34.15-.7.12-1.05-.01-.16-.02-.36-.1-.5-.08-.16-.24-.16-.4-.17-.37-.03-.75-.17-1.05-.39-.06-.04-.14.05-.08.1h0Z"/>
              <path class="cls-13" d="m73.62,46.26c.18-.22.31-.48.5-.69.2-.23.47-.3.77-.34.67-.09,1.29.12,1.93.23.1.02.2-.1.11-.18-.54-.49-1.43-.54-2.12-.43-.32.05-.65.14-.88.38s-.39.55-.6.82c-.12.16.16.39.29.22h0Z"/>
              <path class="cls-13" d="m63.54,48.77c-.92-.01-1.92.13-2.71.65-.63.42-1.36,1.21-1.15,2.04.03.13.24.17.3.04.14-.33.26-.65.45-.95s.46-.53.76-.72c.72-.45,1.57-.58,2.39-.7.21-.03.15-.36-.05-.36h0Z"/>
              <g>
                <path class="cls-24" d="m76.63,57.62c-1.49.67-3.07,1.14-4.69,1.39-.19.03-.31.22-.24.4.68,1.53,2.52,3.09,4.24,2.41.78-.31,1.51-.98,1.5-1.97,0-.7-.16-1.4-.4-2.07-.06-.16-.25-.24-.41-.16Z"/>
                <g class="cls-17">
                  <path class="cls-23" d="m71.51,60.95c.02-.3.29-.51.56-.66,1.35-.77,2.95-1.11,4.5-.93.7.08,1.61.5,1.87,1.19.35.91-.72,1.63-1.45,1.93-1.39.59-2.99.68-4.43.25-.58-.17-1.17-.45-1.51-.95"/>
                </g>
              </g>
              <path class="cls-13" d="m74.38,49.92c.26.26.73.33,1.08.35.38.02.76-.03,1.12-.16.64-.22,1.54-.75,1.39-1.54-.02-.13-.2-.19-.3-.12-.13.09-.25.17-.34.25-.1.1-.19.21-.3.3-.18.16-.46.33-.69.41-.29.1-.58.16-.86.17-.15,0-.31,0-.46-.02s-.3-.07-.46-.08c-.22,0-.34.29-.18.44h0Z"/>
              <path class="cls-13" d="m61.66,54.6c.59.69,1.54.69,2.31.31.73-.36,1.42-.97,1.75-1.68.11-.24-.13-.57-.4-.4-.3.2-.54.41-.81.65s-.5.45-.8.63c-.26.15-.52.28-.81.32-.33.04-.66-.06-.95-.21-.25-.13-.47.17-.29.38h0Z"/>
            </g>
            <g>
              <path class="cls-25" d="m85.07,115.56c-2.25-14.76-7.51-30.15-14.54-43.32,11.29.92,22.35,9.17,27.29,19.36,1.21,2.49,2.1,5.12,2.85,7.78,3.09,10.97,3.85,22.6,2.21,33.88"/>
              <g>
                <path class="cls-3" d="m61.64,151.18c4.58,1.93,10.14,2.29,14.88.68,2.92-.99,8.65-4.67,9.98-7.57.44-.95.57-2.02.67-3.06,1.48-15-1.02-30.07-3.52-44.93-.46-2.75-.93-5.52-1.85-8.15-1.35-3.88-3.64-7.35-6.06-10.68-1.22-1.68-2.8-3.5-4.88-3.45.22,1.78.44,3.62-.1,5.33-.54,1.71-2.07,3.24-3.86,3.18-.81-.03-1.57-.37-2.31-.7-2.98-1.35-5.96-2.7-8.95-4.05-.31-.14-.66-.29-.99-.19-.35.11-.56.46-.73.78-5.17,9.62-6.49,20.81-7.03,31.72-.57,11.64-.33,23.51,3.13,34.63"/>
                <path class="cls-3" d="m69.8,69.94c.85,4.76.31,9.27-.69,12.51-.1.34,4.43,2.3,5.95,8.77.73-4.48.55-11.23-.67-15.74-1-2.28-1.34-3.73-4.59-5.54"/>
                <path class="cls-12" d="m69.69,84.91c1.05,8.61,1.77,17.26,2.16,25.92s.44,17.26.18,25.89c-.07,2.42-.16,4.85-.29,7.27s-.34,4.93-.36,7.39c0,.24.4.31.44.06.29-2.09.39-4.23.51-6.34s.22-4.35.3-6.53c.16-4.31.21-8.63.19-12.95-.04-8.71-.42-17.43-1.15-26.12-.41-4.88-.93-9.74-1.55-14.6-.03-.26-.45-.27-.42,0h0Z"/>
                <path class="cls-3" d="m59.55,68.35l-4.12,3.39c-.54,6.04,2.68,14.72,6.93,19.9.96-2.64,4.3-7.19,6.74-9.18-4.02-2.81-7.88-9.29-9.56-14.1Z"/>
                <path class="cls-12" d="m60.21,88.35c1.31,1.98,2.61,3.97,3.91,5.95.1.15.35.14.4-.05.4-1.68.93-3.33,1.6-4.93.35-.83.73-1.64,1.14-2.43.18-.36.38-.71.57-1.07s.46-.74.57-1.14c.07-.24-.23-.4-.4-.24-.3.29-.5.7-.71,1.06-.23.4-.44.81-.65,1.22-.37.75-.7,1.51-1.01,2.28-.65,1.66-1.16,3.38-1.52,5.13l.4-.05c-1.35-1.96-2.69-3.92-4.03-5.88-.11-.16-.36-.01-.26.15h0Z"/>
                <path class="cls-12" d="m70.59,83.52c1.93,1.72,3.52,3.81,4.67,6.12.11.22.51.18.55-.07.36-2.27.32-4.55.04-6.83-.13-1.08-.31-2.15-.53-3.22-.24-1.19-.47-2.4-.92-3.53-.06-.16-.33-.16-.32.04.05,1.08.3,2.13.49,3.19.21,1.17.41,2.34.56,3.52.28,2.23.37,4.51.08,6.75l.56-.15c-1.25-2.34-2.94-4.34-5.02-5.99-.12-.09-.29.07-.17.17h0Z"/>
              </g>
              <path class="cls-25" d="m64.33,161.94c.11-6.63-.49-13.11-.69-19.76-.23-7.65-.67-15.3-1.33-22.93-.67-7.63-1.56-15.23-2.69-22.8-.29-1.97-3.21-22.79-4.18-22.79-3.17.54-9.92,6.38-14.02,15.09-2.47,5.25-2.53,12.29-3.13,17.94-.99,9.33-1.66,18.7-2.26,28.06-.4,6.26-.75,12.52-1.06,18.78-.08,1.59-.57,3.73-.25,5.3.31,1.57.55,1.73,2.54,1.99,2.59.33,5.32-.35,7.4-1.93.86-.65,1.64-1.45,2.67-1.76,1.22-.37,2.57.06,3.62.78,1.05.72,1.88,1.72,2.74,2.65,2.2,2.38,5.01,4.54,8.25,4.63.65.02,1.37-.08,1.82-.54.5-.5.55-1.28.56-1.99,0-.24.01-.48.02-.72Z"/>
            </g>
            <g>
              <path class="cls-22" d="m46.01,158.02c.49,1.25.55,1.37,1.8,1.85,1.33.51,2.24.59,3.41,1.52,1.19.95,2.13,2.22,2.7,3.63-.32-.02-.64-.04-.96-.07-.11,0,.61,5.31,0,5.82-.45.38-1.64.82-2.21.93-.94.17-1.97-.14-2.64-.82-.37-.37-.63-.83-.88-1.29-1.88-3.45-2.84-5.84-3.98-9.6"/>
              <path class="cls-25" d="m53.62,93.19c.92,10.37-9.12,22.69-13.24,33.55.95,8.11,4.37,25.68,7.6,32.53l-4.17,3.89c-8.35-10.42-18.49-26.46-18.38-39.41.15-17.55,7.04-31.95,10.91-37.48,3.87-5.53,12.7-12.35,19.09-14.53"/>
              <path class="cls-8" d="m53.42,93.19c.19,4.92-1.55,9.62-3.63,14-2.29,4.81-5.06,9.38-7.42,14.15-.57,1.15-1.12,2.31-1.62,3.49-.23.54-.48,1.08-.67,1.63-.13.39-.01.81.04,1.21.24,1.88.53,3.75.85,5.62.77,4.55,1.68,9.08,2.75,13.56,1.01,4.23,2.03,8.65,3.99,12.56.19.37.71.05.55-.32-1.54-3.51-2.54-7.29-3.47-11-1.12-4.48-2.05-9.01-2.86-13.56-.34-1.93-.66-3.87-.93-5.81-.06-.43-.12-.86-.17-1.29-.07-.57.02-.92.24-1.46.48-1.18,1-2.33,1.56-3.47,2.3-4.77,5.02-9.32,7.32-14.09s4.55-9.97,3.88-15.23c-.03-.25-.41-.26-.4,0h0Z"/>
              <path class="cls-2" d="m53.61,178.09c.71-1.59.98-3.4,1.53-5.07.62-1.9.95-3.99.24-5.91-.84-2.25-3.11-5.48-3.11-5.48,0,0-1.88,1.66-3.19,2.7-2,1.59-4.2,3.08-6.01,4.89-.35.32-.74.75-.62,1.21.06.24.24.42.42.59,1.16,1.13,2.33,2.25,3.49,3.38,2.23,2.16,4.58,4.39,7.53,5.35"/>
            </g>
          </g>
          <g>
            <g>
              <path class="cls-22" d="m114.96,149.43s.82,38.81,2.39,41.61c8.26,5.57,12.82,9.28,19.05,18.02,5.73,8.03,15.49,25.41,21.37,34.08l-3.36,3.89c-12.67-10.78-39.23-33.96-50.23-46.55-8.91-10.2-18.02-45.37-18.02-45.37"/>
              <path class="cls-14" d="m111.97,199.51c-.06-.2-.12-.41-.17-.61-.72-2.51-.11-4.57.59-6.47.58-.38,4.44-1.46,4.7-2.15.31-.81-.24-2.62-.33-3.48-.19-1.89-.37-3.78-.52-5.68-.1-1.2-.18-2.4-.26-3.6-.05-.73.23-3.33-.21-3.84-.84-.97-1.82-1.83-3-2.3-2.81-1.1-6.13.33-8.01,2.69-1.88,2.36-2.58,5.44-2.92,8.44-.61,5.27-.28,10.51.64,15.69.57.85,1.15,1.62,1.73,2.28,3.53,4.05,8.68,9.19,14.45,14.66-.7-.67-1.15-2.68-1.59-3.58-.65-1.35-1.38-2.66-2.08-3.96-1.33-2.48-2.21-5.36-3-8.08Z"/>
              <path class="cls-22" d="m152.42,244.13c1.27,1.1,1.83,2.84,1.86,4.52s-.4,3.33-.83,4.96c-.36,1.37-.72,2.73-1.08,4.1,1.87-.62,3.1-2.38,4.1-4.07,1.01-1.69,2.01-3.52,3.73-4.49.64-.36,1.36-.59,1.99-.97s1.2-.98,1.27-1.71c.12-1.36-1.41-2.19-2.66-2.75-2.55-1.15-2.36-.08-4.42-1.96"/>
              <path class="cls-4" d="m159.86,243.27c1.3.16,2.47.92,3.37,1.87.9.95,1.56,2.09,2.21,3.23.2.34.65,1.28.59,1.5s-1.03.97-1.32.92c-.28-.05-1.1-1.34-1.61-1.37-.51-.03-1.4,1.55-1.91,2.57-.27.55-.39,1.15-.62,1.72-.56,1.4-1.73,2.46-2.97,3.34-1.01.72-2.03,1.43-3.13,2.01-.55.29-1.12.54-1.71.73-.46.15-1.28.51-1.71.15-.3-.26-.29-.81-.15-1.15.68-1.59,2.4-4.84,2.4-4.84,0,0,1.82.04,3.18-2.08.58-.9,1.06-1.86,1.71-2.71.62-.81,1.41-1.49,1.95-2.35.54-.86.79-2.03.23-2.87"/>
            </g>
            <g>
              <path class="cls-22" d="m114.23,164.18c-1.72,10.92-6.72,31.33-6.9,34.53,3.99,9.13,5.85,14.7,6.43,25.42.54,9.85-.53,29.75-.22,40.23l-4.92,1.49c-4.92-15.89-14.93-49.7-17.47-66.22-2.06-13.39-3.27-33.52-3.27-33.52"/>
              <path class="cls-22" d="m108.5,262.33c.48,1.61.02,3.38-.85,4.81s-2.12,2.6-3.36,3.75c-1.04.96-2.07,1.92-3.11,2.88,1.91.47,3.89-.35,5.65-1.24,1.76-.89,3.59-1.89,5.56-1.79.74.04,1.46.23,2.2.25.74.02,1.54-.18,1.99-.77.83-1.09-.02-2.6-.77-3.74-1.54-2.33-1.95-1.33-2.68-4.02"/>
              <path class="cls-4" d="m115.24,265.6c1.01.84,1.59,2.1,1.84,3.39.25,1.28.19,2.6.14,3.91-.02.39-.14,1.43-.3,1.58-.16.15-1.39.27-1.6.07-.21-.2-.21-1.72-.63-2.02-.42-.3-2.01.56-2.98,1.14-.52.32-.95.76-1.44,1.12-1.22.88-2.79,1.15-4.29,1.23-1.24.07-2.48.12-3.72.02-.62-.05-1.24-.14-1.84-.3-.47-.12-1.36-.25-1.52-.79-.12-.38.18-.84.49-1.05,1.43-.98,4.62-2.8,4.62-2.8,0,0,1.51,1,3.81-.05.97-.45,1.89-1,2.9-1.37.96-.35,1.99-.5,2.91-.94.92-.44,1.75-1.29,1.73-2.3"/>
            </g>
            <g>
              <path class="cls-1" d="m100.72,40.83c-2.85-1.22-6.17-1.3-9.07-.21s-5.35,3.33-6.69,6.13c-.54,1.12-.91,2.36-.82,3.61.09,1.32.67,2.59.56,3.9-.18,2.09-2.09,3.8-2.01,5.89.05,1.4,1.04,2.64,2.25,3.34,1.22.7,2.64.94,4.03,1.07,1.16.11,2.34.16,3.49-.05,1.27-.23,2.46-.78,3.58-1.42,1.15-.66,2.25-1.45,3.04-2.51,1.03-1.37,1.47-3.07,1.89-4.73.63-2.5,1.26-5.17.38-7.59"/>
              <path class="cls-22" d="m84.9,64.68c.86,2.72,1.77,5.47,1.87,8.3.18,5.35-1.04,7.57-3.51,12.18.45,1.07,1.41,1.03,2.65,1.1,4.59.25,10.58-2.59,13.78-6.9-2.89-1.29-5.08-6.38-3.97-14.06"/>
              <path class="cls-22" d="m107.24,56.29c-.45-1.84-.94-3.69-1.79-5.39-.66-1.31-1.75-2.16-2.88-3.08-5.51-4.49-13.25-1.37-17.46,3.33-2.24,2.51-4.01,5.4-5.49,8.42-.84,1.72-2.02,3.48-2.13,5.45-.16,2.67,2.29,4.11,4.37,5.16,1.06.53,2.15,1,3.2,1.54.53.27,1.48.64,1.71,1.25,4.69.71,8.49.68,12.52-1.48,3.05-1.64,6.69-5.32,8.12-8.71.86-2.04.36-4.36-.17-6.5Z"/>
              <path class="cls-1" d="m89.84,50.86c.16.03.32.09.48.13s.32.09.47.15c.3.13.59.31.83.54s.42.48.57.77c.07.13.12.27.16.42.05.16.07.34.16.48.08.12.26.1.31-.04.06-.17,0-.38-.04-.55s-.12-.34-.2-.5c-.16-.32-.38-.63-.65-.87s-.59-.45-.93-.59c-.17-.07-.34-.13-.52-.17-.2-.04-.4-.04-.6-.02-.13.01-.19.22-.03.25h0Z"/>
              <path class="cls-11" d="m86.93,58.43c.14-.09.39-.11.81-.03,1.17.22,2.18,1.36,2.67,2.37.1.2.17.45.03.62-.16.2-.47.14-.72.05-.69-.25-1.32-.64-1.86-1.14-.43-.39-1.43-1.56-.94-1.88Z"/>
              <path class="cls-22" d="m83.26,54.7c-.99.47-2.03.84-3.09,1.12-.22.06-.47.12-.6.31-.09.12-.12.26-.13.41-.08,1.11,1.57,1.4,2.09,1.81"/>
              <path class="cls-1" d="m93.2,42.65c-1.55.63-1.96,2.75-1.39,4.32.57,1.57,1.81,2.79,2.82,4.13,3.52,4.68,4.44,11.26.95,16.18-.78,1.09-1.74,2.1-2.12,3.38-.63,2.08.67,4.55,2.75,5.21.48.15.98.22,1.46.38.9.31,1.63.96,2.37,1.56,1.2.97,2.5,1.86,3.97,2.36,1.47.49,3.13.55,4.52-.11,2.34-1.1,3.59-3.98,6.06-4.73,1.8-.55,3.86.19,5.57-.6,1.65-.76,2.3-2.58,2.04-4.3-.34-2.21-2.08-3.98-3.18-5.75-1.92-3.1-2.51-6.79-3.25-10.3-1.34-6.38-5.77-11.25-12.01-13.13-3.09-.93-6.43-.19-9.46.91"/>
              <g>
                <path class="cls-22" d="m96.57,63.37c.77-.34,1.58-.61,2.4-.8.6-.14,1.26-.24,1.81.03.74.37,1.02,1.26,1.09,2.07.05.53.04,1.08-.09,1.6-.37,1.38-1.6,2.37-2.83,3.15-.65.41-1.33.8-2.08.99-.75.19-1.59.15-2.25-.26-.65-.41-1.06-1.23-.82-1.95"/>
                <path class="cls-7" d="m100,65.24c-.09-.5-.69-.73-1.13-.59-.27.08-.5.29-.63.53-.17.31-.16.6-.2.93-.04.31-.33.46-.6.55-.32.12-.65.22-.95.4-.56.33-1.14,1.01-.98,1.72.06.29.56.31.6,0,.04-.28.06-.52.23-.75.16-.22.38-.38.62-.5.47-.25,1.04-.31,1.4-.74.19-.23.25-.48.25-.78,0-.23.02-.45.14-.65.1-.17.26-.3.46-.3.19,0,.4.09.46.28.06.22.37.12.33-.09h0Z"/>
                <path class="cls-7" d="m98.02,69.54c-.43.3-.98.41-1.5.39-.25,0-.5-.06-.74-.15-.13-.05-.25-.11-.38-.16-.12-.04-.24-.12-.36-.14s-.26.08-.21.21c.1.3.44.52.72.62.3.12.63.17.95.18s.63-.05.93-.16.56-.29.8-.52c.14-.13-.05-.39-.21-.28h0Z"/>
              </g>
              <path class="cls-23" d="m82.22,61.64c-.5.23-1.13.35-1.64.19-.22-.07-.41-.2-.52-.39-.07-.11-.1-.22-.13-.37s-.02-.38-.14-.5c-.04-.05-.13-.06-.19-.02-.25.18-.18.65-.09.9s.27.47.49.63c.43.3,1.02.32,1.52.22.31-.06.6-.19.86-.37.18-.12.03-.38-.17-.29h0Z"/>
              <path class="cls-1" d="m89.78,56.04c-.62-.2-1.22-.49-1.77-.85-.26-.17-.52-.35-.76-.55-.09-.08-.21-.17-.26-.28-.02-.04-.02-.07-.01-.1,0,.04,0-.01,0-.02,0-.04.03-.07.04-.11.13-.33-.35-.58-.59-.34-.31.33-.2.82.07,1.13.25.29.63.5.96.69.69.39,1.45.64,2.23.75.2.03.29-.24.09-.31h0Z"/>
              <path class="cls-1" d="m85.44,53.83c.14.18.33.32.53.4.1.04.2.07.3.09.06.01.14.03.2.01.05-.01.11-.03.16-.05.07-.03.09-.15,0-.17-.05-.01-.09-.02-.13-.04-.05-.02-.11-.01-.17-.02-.08-.01-.18-.04-.27-.07-.18-.07-.34-.17-.47-.3-.04-.04-.11-.04-.14,0-.04.04-.03.1,0,.14h0Z"/>
              <path class="cls-1" d="m85.47,54.78c.16.2.4.36.65.41s.68.06.82-.22c.04-.09.01-.23-.1-.25-.04,0-.08-.02-.12-.01-.02,0-.04,0-.06.01-.02,0-.01,0,0,0-.07,0-.13.02-.2.04-.01,0-.03,0-.04,0,0,0-.04,0-.01,0,.03,0-.02,0-.02,0-.01,0-.02,0-.04,0-.06,0-.11,0-.17,0,0,0-.04,0-.02,0,.01,0,.01,0,0,0-.02,0-.04,0-.06,0-.01,0-.02,0-.03,0,.03,0,0,0,0,0-.05,0-.1-.02-.15-.04-.05-.02-.07-.02-.12-.05-.04-.02-.09-.05-.13-.08-.14-.11-.3.06-.19.19h0Z"/>
            </g>
            <g>
              <g>
                <path class="cls-23" d="m81.6,95.99c-.16-2.04-.17-4.1-.05-6.14.08-1.28.23-2.62.91-3.71.87-1.39,2.45-2.15,3.94-2.84,1.34-.62,2.69-1.24,4.05-1.82,1.87-.8,3.87-1.55,5.9-1.31,1.81.22,3.5,1.19,4.84,2.4,1.36,1.24,2.28,2.88,3.06,4.55,2.32,4.91,3.72,10.26,4.13,15.68.21,2.68.32,5.55-.12,8.21-.35,2.14-2.35,2.94-4.37,3.11-3.57.31-7.3-.15-10.39-1.96-.98-.57-1.88-1.28-2.75-1.99-3.12-2.55-6.02-5.36-8.67-8.39-.7-.8-1.43-1.72-1.42-2.79"/>
                <path class="cls-20" d="m112.54,117.45c-2.43-9.67-2.61-19.95-6.25-29.31-1.24-3.19-4.23-9.53-8.46-8.94-3.71.52-6.66,3.71-7.76,7.29-.14.46-.3.98-.72,1.2-.23.12-.49.13-.75.14-2.09.04-4.88-.37-6.91-.89-1.71,4.27-2.46,14.08-2.68,16.65-.46,5.56-.58,11.15-.53,16.73.09,10.74.83,21.47,1.72,32.17.31,3.77.65,7.53.94,11.3.86,11.59.72,19.2-.5,30.76,3.79,1.88,15.75,2.63,19.69,1.08,3.94-1.55,7.63-3.79,11.74-4.78,3.93-.95,8.05-.71,12.04-1.3,7.76-1.15,11.27-7,15.79-13.42-7.62-19.33-24.53-47.39-27.37-58.68Zm-4.63-10.73c-.32,1.61-1.1,2.99-2.57,3.93-.8.51-1.74.74-2.67.85-2.74.32-5.71-.48-7.58-2.53-2.01-2.22-2.43-5.43-2.61-8.43-.19-3.14-.21-6.29-.06-9.43.12-2.64.5-5.55,2.46-7.31,1.79-1.6,4.89-1.3,6.46.46,1.96,2.21,2.65,5.66,3.59,8.39,1.15,3.32,3.86,9.59,2.98,14.08Z"/>
                <path class="cls-22" d="m119.24,133.63c-1.29,2.27-2.13,4.79-2.44,7.38-.06.49-.02,1.12.44,1.3.38.15.79-.15,1.04-.47s.45-.72.82-.9c.13-.07.29-.1.42-.03.13.07.19.22.23.36.46,1.36.74,2.77.83,4.2.1,1.49,0,3.07.7,4.4.07.14.17.29.32.34.36.13.62-.36.69-.74.27-1.36.54-2.71.81-4.07l.27,2.48c.05.46.27,1.07.73,1,.84-1.65,1.54-3.41,1.61-5.26.13-3.58-2.12-6.76-4.27-9.63"/>
                <path class="cls-16" d="m101.26,123.69c.46,8.44,2.32,16.71,4.57,24.84s4.98,16.36,7.06,24.65c1.17,4.64,2.08,9.32,2.79,14.05.05.34.64.26.61-.08-.86-8.39-3.27-16.6-5.69-24.65s-5.14-16.21-6.98-24.51c-1.05-4.71-1.81-9.48-2.13-14.3,0-.14-.23-.15-.23,0h0Z"/>
                <path class="cls-16" d="m86.59,193.89c3.76,1.11,7.68,1.19,11.46.12s6.73-3.38,10.09-5.17c1.73-.92,3.54-1.63,5.51-1.82s3.84-.07,5.77-.15c1.78-.07,3.48-.36,5.14-1.03,1.57-.64,3.02-1.51,4.37-2.53,1.61-1.21,3.07-2.59,4.45-4.04s2.75-2.89,3.92-4.49c.18-.25-.21-.53-.42-.32-1.24,1.2-2.31,2.57-3.49,3.84s-2.44,2.53-3.79,3.66c-2.72,2.28-5.87,4.01-9.47,4.26-1.85.13-3.71.02-5.57.13-1.73.09-3.36.45-4.96,1.13-3.45,1.48-6.37,3.96-9.86,5.35-4.1,1.64-8.81,1.98-13.1.89-.12-.03-.17.15-.05.19h0Z"/>
              </g>
              <g>
                <path class="cls-4" d="m106.51,126.7c3.32,2.57,7.05,4.56,11.15,5.76.14.04.3.08.42,0,.1-.07.14-.19.15-.31.11-.71-.28-1.42-.82-1.89-2.15-1.89-5.37-2.77-7.75-4.46-2.59-1.84-4.97-3.98-7.08-6.36-4.53-5.09-7.82-11.25-9.49-17.86-.91-3.61-1.74-7.36-1.46-11.11.2-2.63,1.41-5.9,3.74-7.37,3.67-2.31,7.6,1.91,9.47,4.68,2.45,3.62,3.77,7.84,5.48,11.83,1.84,4.29,3.51,8.65,5.02,13.07.31-1.21.09-2.48-.16-3.7-.9-4.38-2.13-8.68-3.68-12.87-1.55-4.18-3.45-8.28-6.13-11.85-2.45-3.25-6.82-6.78-10.97-4.13-4.81,3.08-6.01,11.67-5.09,16.85,1.98,11.15,8.03,22.62,17.21,29.72Z"/>
                <path class="cls-4" d="m126.85,115.15c-1.24-2.26-2.69-4.5-4.79-5.99-1.69-1.19-3.66-1.78-5.68-2.14-3.01-.54-5.4-1.05-5.51,2.83-.2,7.5,1.8,14.87,4.82,21.69,1.02,2.3,2.22,4.56,3.89,6.44,1.43,1.61,3.4,2.98,5.55,2.86,3.48-.2,5.55-4.05,6.03-7.49.87-6.28-1.26-12.63-4.31-18.19Z"/>
                <path class="cls-4" d="m114.6,109.58c4.2,2.81,7.08,7.66,11.88,9.25,1.05.35,2.32.48,3.18-.23.48-.4.75-1.01.83-1.63.29-2.13-1.39-4.01-3.11-5.3-3.71-2.8-8.3-4.52-12.95-4.41"/>
                <path class="cls-9" d="m116.14,113.78c1.54,1.53,3.3,2.85,5.26,3.8s4.04,1.75,6.14,1.69c.17,0,.21-.25.04-.3-2.01-.63-4.05-1.02-5.98-1.93s-3.7-2.04-5.27-3.46c-.13-.12-.33.07-.2.2h0Z"/>
                <path class="cls-9" d="m120.2,118.36c1.63,3.24,3.24,6.49,4.32,9.96.53,1.69.95,3.42,1.15,5.17.17,1.43.71,4.6-1.38,4.85-.2.02-.28.32-.05.38,1.84.43,2.19-1.94,2.15-3.21-.05-2-.39-4.01-.95-5.93-1.15-3.98-3.11-7.7-5.02-11.35-.08-.15-.3-.02-.22.13h0Z"/>
                <path class="cls-9" d="m129.01,118.78c-.73.04-1.6.23-1.87.91-.19.47.02,1.05.42,1.37.4.32.94.41,1.45.33.26-.04.51-.12.73-.27.4-.28.61-.82.5-1.3-.1-.48-.52-.88-1-.97"/>
              </g>
            </g>
            <g>
              <g>
                <path class="cls-22" d="m97.19,85.11c-4.39,3.47-7.34,8.4-10.44,13.06-10.25,15.38-23.23,28.94-38.16,39.85l2.56,2.82c10.64-2.55,25.27-11.84,33.95-18.49,8.68-6.65,7.73-7.95,15.1-16.03"/>
                <path class="cls-23" d="m107.75,101.63c-.42-3.41-1.16-6.8-2.3-10.05-.98-2.81-2.43-6.3-4.89-8.16-2.9-2.2-7.07-.59-9.1,4.16-3.56,8.33-8.22,13.88-9.36,15.25,1.69,6.88,7.2,12.2,14.46,15.32,3.05-5.34,6.3-9.14,8.43-14.9"/>
                <g class="cls-15">
                  <path class="cls-19" d="m104.53,103.53c-.74,1.28-1.47,2.57-2.17,3.87-.34.63-.68,1.26-1.01,1.89s-.77,1.29-.93,1.98c-.03.14.15.27.26.15.48-.53.76-1.26,1.08-1.89s.64-1.28.96-1.92c.66-1.33,1.29-2.67,1.92-4.02.03-.07-.07-.13-.11-.06h0Z"/>
                </g>
              </g>
              <path class="cls-22" d="m52.05,136.69c-3.39-.51-6.05-.46-9.18.91-.69.3-2.15,1.53-1.74,1.95.42.42,3.1-.75,3.19-.22s-4.28,2.81-6.1,4.96c-.13.15-.27.34-.21.54.1.37.65.26.98.07,1.79-1.03,5.36-3.08,5.36-3.08,0,0-1.76,1.85-2.76,2.66-1,.81-2.65,2.21-2.11,2.83.38.45,6.02-3.21,6.02-3.21,0,0-3.71,3.5-3.15,3.94.56.44,1.65-.44,2.21-.88,1.36-1.06,3.34-2.41,3.34-2.41,0,0-3.28,3.35-2.78,3.77.5.42,2.96-1.44,4-2.59,1.8-2.02,3.7-4.25,3.88-6.95"/>
            </g>
          </g>
          <g>
            <path class="cls-23" d="m71.21,12.32c-.32-.48-1.17-.68-1.82.18-.74.98-.65,2.08-.65,2.08-.59-.57-.93-1.02-1.73-1.18-.69-.14-1.2.47-1.24,1.12-.11,1.81,3.95,4.2,4.53,3.97.95-1,1.55-5.19.9-6.16Z"/>
            <path class="cls-23" d="m80.88,15.13c.33-.95,1.73-1.79,3.28-.89,1.76,1.03,2.12,2.76,2.12,2.76.76-1.25,1.15-2.15,2.48-2.92,1.15-.66,2.32-.05,2.69.91,1.05,2.69-4.95,8.95-6.08,8.98-2.14-.91-5.17-6.95-4.5-8.85Z"/>
            <path class="cls-5" d="m94.85,1.69c.48-.5,1.58-.62,2.27.4.79,1.17.52,2.36.52,2.36.82-.57,1.32-1.02,2.36-1.11.9-.08,1.44.65,1.4,1.37-.12,2.01-5.6,4.19-6.3,3.87-1.06-1.21-1.2-5.9-.24-6.9Z"/>
            <path class="cls-5" d="m72.75,3.02c-.08-.58.43-1.38,1.48-1.29,1.2.1,1.84.92,1.84.92.07-.85.03-1.42.52-2.16.43-.63,1.2-.61,1.65-.19,1.27,1.15-.22,5.95-.8,6.25-1.37.06-4.55-2.36-4.71-3.53Z"/>
            <path class="cls-5" d="m98.99,21.77c.5-.18,1.29.11,1.42,1.05.15,1.07-.45,1.8-.45,1.8.76-.11,1.25-.25,2,.04.64.25.77.94.49,1.42-.76,1.34-5.27.97-5.65.52-.32-1.19,1.18-4.46,2.18-4.82Z"/>
          </g>
        </g>
      </g>
    </g>
  </g>
</svg>