<svg width="436" height="386" viewBox="0 0 436 386" fill="none" xmlns="http://www.w3.org/2000/svg">
<path d="M0.971193 118.197C0.911962 86.6947 13.5162 56.5135 35.9482 34.4435C58.3801 12.3735 88.7557 0.268444 120.241 0.851814C150.017 0.693619 178.722 10.7457 201.756 28.9645C211.129 36.3777 224.97 36.3777 234.317 28.9645C257.289 10.7457 285.96 0.693619 315.737 0.851814C347.22 0.268444 377.637 12.3735 400.144 34.4435C422.651 56.5135 435.359 86.6947 435.407 118.197C435.595 228.208 311.944 312.748 232.073 380.405C224.344 386.952 212.981 386.921 205.255 380.343C125.282 312.253 1.15935 228.303 0.971193 118.197Z" fill="url(#paint0_linear_249_163)"/>
<defs>
<linearGradient id="paint0_linear_249_163" x1="217.989" y1="0.831665" x2="217.989" y2="392.001" gradientUnits="userSpaceOnUse">
<stop stop-color="#FF0033"/>
<stop offset="1" stop-color="#7A0C2D"/>
</linearGradient>
</defs>
</svg>
