<?xml version="1.0" encoding="UTF-8"?>
<svg id="Layer_2" data-name="Layer 2" xmlns="http://www.w3.org/2000/svg" xmlns:xlink="http://www.w3.org/1999/xlink" viewBox="0 0 1920 1080">
  <defs>
    <style>
      .cls-1 {
        opacity: .5;
      }

      .cls-1, .cls-2, .cls-3 {
        fill: #ff7bd3;
      }

      .cls-4 {
        fill: url(#Degradado_sin_nombre_30);
      }

      .cls-5 {
        fill: url(#Degradado_sin_nombre_29);
      }

      .cls-6 {
        fill: url(#Degradado_sin_nombre_31);
      }

      .cls-7 {
        fill: url(#Degradado_sin_nombre_32);
      }

      .cls-8 {
        clip-path: url(#clippath);
      }

      .cls-9 {
        fill: none;
      }

      .cls-2 {
        opacity: .35;
      }

      .cls-10 {
        fill: url(#Degradado_sin_nombre_30-2);
      }
    </style>
    <linearGradient id="Degradado_sin_nombre_32" data-name="Degradado sin nombre 32" x1="486.17" y1="1360.69" x2="1433.83" y2="-280.69" gradientUnits="userSpaceOnUse">
      <stop offset="0" stop-color="#422e8e"/>
      <stop offset="1" stop-color="#ff45a2"/>
    </linearGradient>
    <clipPath id="clippath">
      <rect class="cls-9" width="1920" height="1080"/>
    </clipPath>
    <linearGradient id="Degradado_sin_nombre_31" data-name="Degradado sin nombre 31" x1="1187.31" y1="1274.75" x2="958.69" y2="199.19" gradientUnits="userSpaceOnUse">
      <stop offset="0" stop-color="#422e8e" stop-opacity="0"/>
      <stop offset="1" stop-color="#ff45a2" stop-opacity=".4"/>
    </linearGradient>
    <linearGradient id="Degradado_sin_nombre_30" data-name="Degradado sin nombre 30" x1="1395.66" y1="1281.11" x2="1156.09" y2="445.62" gradientUnits="userSpaceOnUse">
      <stop offset="0" stop-color="#422e8e" stop-opacity="0"/>
      <stop offset="1" stop-color="#ff45a2"/>
    </linearGradient>
    <linearGradient id="Degradado_sin_nombre_30-2" data-name="Degradado sin nombre 30" x1="1434.17" y1="1210.68" x2="1333.58" y2="737.42" xlink:href="#Degradado_sin_nombre_30"/>
    <linearGradient id="Degradado_sin_nombre_29" data-name="Degradado sin nombre 29" x1="698.09" y1="414.51" x2="574.17" y2="-168.53" gradientUnits="userSpaceOnUse">
      <stop offset="0" stop-color="#ff45a2"/>
      <stop offset="1" stop-color="#422e8e" stop-opacity="0"/>
    </linearGradient>
  </defs>
  <g id="OBJECTS">
    <g>
      <rect class="cls-7" width="1920" height="1080"/>
      <g class="cls-8">
        <g>
          <g>
            <path class="cls-6" d="m98.57,1108.81c141.14-24.22,216.86-313.83,348.99-384.36,151.27-80.75,279.59-30.37,459.16-114.66,200.7-94.21,384.12-482.88,589.58-524.87,205.46-41.99,441.29-62.98,471.67-93.67v1117.56H98.57Z"/>
            <path class="cls-4" d="m454.7,1099.12c60.74-4.85,123.87-174.42,217.97-213.18,80.06-32.98,203.67-8.61,269.78-45.22,89.92-49.8,96.48-200.26,210.82-248.71,114.34-48.45,240,17.23,332.31-19.38,96.89-38.42,162.12-250.14,264.42-295.54,98.26-43.6,198.31,17.76,246.55,0v831.71l-1541.85-9.69Z"/>
            <path class="cls-10" d="m762,1108.81c66.1-67.83,179.59-187.87,290.62-222.87,116.13-36.61,225.71,3.23,338.27-27.45,112.56-30.68,154.99-113.51,271.12-176.49,116.13-62.98,273.8-44.76,297.03-62.52v479.65l-1197.03,9.69Z"/>
            <path class="cls-5" d="m-40.78,571.57c71.46-15.07,206.57-289.58,326.35-324.07,134.59-38.76,233.87,32.68,376.38-16.15,147.69-50.6,123.87-159.34,245.36-176.57,121.49-17.23,364.47,25.84,466.9-92.59H-40.78v609.38Z"/>
          </g>
          <g>
            <path class="cls-3" d="m928.25,528.16c0,3.7-3.32,6.7-7.42,6.7s-7.42-3-7.42-6.7,3.32-6.7,7.42-6.7,7.42,3,7.42,6.7Z"/>
            <path class="cls-3" d="m1841.65,750.29c0,3.7-3.32,6.7-7.42,6.7s-7.42-3-7.42-6.7,3.32-6.7,7.42-6.7,7.42,3,7.42,6.7Z"/>
            <path class="cls-3" d="m1549.3,884.87c0,3.27-2.93,5.92-6.55,5.92s-6.55-2.65-6.55-5.92,2.93-5.92,6.55-5.92,6.55,2.65,6.55,5.92Z"/>
            <ellipse class="cls-3" cx="768.1" cy="878.95" rx="6.55" ry="5.92"/>
            <path class="cls-3" d="m325.47,343.32c0,1.64-1.47,2.96-3.28,2.96s-3.28-1.33-3.28-2.96,1.47-2.96,3.28-2.96,3.28,1.33,3.28,2.96Z"/>
            <path class="cls-3" d="m502.35,30.01c0,1.64-1.47,2.96-3.28,2.96s-3.28-1.33-3.28-2.96,1.47-2.96,3.28-2.96,3.28,1.33,3.28,2.96Z"/>
            <path class="cls-3" d="m67.31,540c0,1.64-1.47,2.96-3.28,2.96s-3.28-1.33-3.28-2.96,1.47-2.96,3.28-2.96,3.28,1.33,3.28,2.96Z"/>
            <path class="cls-3" d="m1493.32,194.74c0,3.27-2.93,5.92-6.55,5.92s-6.55-2.65-6.55-5.92,2.93-5.92,6.55-5.92,6.55,2.65,6.55,5.92Z"/>
            <path class="cls-1" d="m891.23,228.92c0,1.93-1.73,3.5-3.87,3.5s-3.87-1.57-3.87-3.5,1.73-3.5,3.87-3.5,3.87,1.57,3.87,3.5Z"/>
            <path class="cls-1" d="m1066.02,1046.64c0,1.93-1.73,3.5-3.87,3.5s-3.87-1.57-3.87-3.5,1.73-3.5,3.87-3.5,3.87,1.57,3.87,3.5Z"/>
            <path class="cls-1" d="m1805.68,414.37c0,1.93-1.73,3.5-3.87,3.5s-3.87-1.57-3.87-3.5,1.73-3.5,3.87-3.5,3.87,1.57,3.87,3.5Z"/>
            <path class="cls-2" d="m999.32,261.11c0,.97-.87,1.75-1.94,1.75s-1.94-.78-1.94-1.75.87-1.75,1.94-1.75,1.94.78,1.94,1.75Z"/>
            <ellipse class="cls-2" cx="1736.74" cy="1032.37" rx="1.94" ry="1.75"/>
            <ellipse class="cls-2" cx="340.81" cy="64.46" rx="1.94" ry="1.75"/>
            <path class="cls-2" d="m127.75,992.53c0,.97-.87,1.75-1.94,1.75s-1.94-.78-1.94-1.75.87-1.75,1.94-1.75,1.94.78,1.94,1.75Z"/>
            <path class="cls-2" d="m522.74,878.95c0,.97-.87,1.75-1.94,1.75s-1.94-.78-1.94-1.75.87-1.75,1.94-1.75,1.94.78,1.94,1.75Z"/>
          </g>
        </g>
      </g>
    </g>
  </g>
</svg>