<?xml version="1.0" encoding="UTF-8"?>
<svg xmlns="http://www.w3.org/2000/svg" xmlns:xlink="http://www.w3.org/1999/xlink" viewBox="0 0 1920 1080">
  <defs>
    <style>
      .cls-1 {
        fill: url(#linear-gradient-2);
      }

      .cls-2, .cls-3 {
        fill: #fff;
      }

      .cls-4 {
        fill: url(#linear-gradient-6);
      }

      .cls-5 {
        clip-path: url(#clippath-2);
      }

      .cls-6 {
        isolation: isolate;
      }

      .cls-7 {
        clip-path: url(#clippath-1);
      }

      .cls-8 {
        clip-path: url(#clippath-4);
      }

      .cls-9 {
        mix-blend-mode: screen;
      }

      .cls-10 {
        clip-path: url(#clippath);
      }

      .cls-11, .cls-12 {
        fill: none;
      }

      .cls-13 {
        fill: url(#linear-gradient-5);
      }

      .cls-13, .cls-3 {
        opacity: .6;
      }

      .cls-14 {
        clip-path: url(#clippath-3);
      }

      .cls-15 {
        fill: url(#linear-gradient-7);
      }

      .cls-16, .cls-17 {
        mix-blend-mode: overlay;
      }

      .cls-18 {
        fill: url(#linear-gradient-3);
      }

      .cls-19 {
        fill: url(#linear-gradient);
      }

      .cls-12 {
        stroke: #fff;
        stroke-miterlimit: 10;
        stroke-width: .82px;
      }

      .cls-20 {
        fill: url(#linear-gradient-4);
      }

      .cls-17 {
        opacity: .5;
      }
    </style>
    <linearGradient id="linear-gradient" x1="39.99" y1="1102.87" x2="1880.14" y2="-22.95" gradientUnits="userSpaceOnUse">
      <stop offset="0" stop-color="#fea4a0"/>
      <stop offset=".41" stop-color="#fe00a0"/>
      <stop offset=".54" stop-color="#c80595"/>
      <stop offset=".7" stop-color="#8f0b89"/>
      <stop offset=".83" stop-color="#651081"/>
      <stop offset=".94" stop-color="#4c127b"/>
      <stop offset="1" stop-color="#43147a"/>
    </linearGradient>
    <clipPath id="clippath">
      <rect class="cls-11" width="1920" height="1080" rx="6.29" ry="6.29"/>
    </clipPath>
    <linearGradient id="linear-gradient-2" x1="1252.59" y1="352.34" x2="2002.36" y2="606.55" gradientUnits="userSpaceOnUse">
      <stop offset="0" stop-color="#fe00a0"/>
      <stop offset="1" stop-color="#000" stop-opacity="0"/>
    </linearGradient>
    <linearGradient id="linear-gradient-3" x1="1337.29" y1="515.68" x2="1984.95" y2="119.43" gradientUnits="userSpaceOnUse">
      <stop offset="0" stop-color="#7c4dff"/>
      <stop offset="1" stop-color="#000" stop-opacity="0"/>
    </linearGradient>
    <linearGradient id="linear-gradient-4" x1="1397.53" y1="694.97" x2="1556.01" y2="1224.09" xlink:href="#linear-gradient-3"/>
    <linearGradient id="linear-gradient-5" x1="1436.78" y1="432.8" x2="1690.31" y2="1190.25" xlink:href="#linear-gradient-2"/>
    <linearGradient id="linear-gradient-6" x1="225.49" y1="899.29" x2="128.96" y2="1225.4" xlink:href="#linear-gradient-3"/>
    <linearGradient id="linear-gradient-7" x1="1192.06" y1="463.95" x2="1339.51" y2="-52.1" xlink:href="#linear-gradient-3"/>
    <clipPath id="clippath-1">
      <ellipse id="SVGID" class="cls-11" cx="1222.1" cy="297.5" rx="132" ry="118.8"/>
    </clipPath>
    <clipPath id="clippath-2">
      <ellipse id="SVGID-2" data-name="SVGID" class="cls-11" cx="1671.28" cy="773" rx="132" ry="118.8"/>
    </clipPath>
    <clipPath id="clippath-3">
      <ellipse id="SVGID-3" data-name="SVGID" class="cls-11" cx="1032.17" cy="1057.98" rx="132" ry="118.8"/>
    </clipPath>
    <clipPath id="clippath-4">
      <ellipse id="SVGID-4" data-name="SVGID" class="cls-11" cx="177.41" cy="1104.4" rx="132" ry="118.8"/>
    </clipPath>
  </defs>
  <g class="cls-6">
    <g id="Layer_2" data-name="Layer 2">
      <g id="OBJECTS">
        <g>
          <rect class="cls-19" width="1920" height="1080" rx="6.29" ry="6.29"/>
          <g class="cls-10">
            <g class="cls-9">
              <path class="cls-1" d="m1407.08-125.21s176.91,203.63-4.15,448.93c-323.26,437.96,489.47,609.27,51.87,827.58h543.53V-125.21h-591.25Z"/>
              <path class="cls-18" d="m1130.6,0s-126.12,270.48,241.1,318.99c367.22,48.51,249.3,263.79,245.93,375.98-3.37,112.19,102.74,203.58,302.36,106.34V0h-789.39Z"/>
              <path class="cls-20" d="m839.3,1080s-26.15-269.72,293.13-214.23c558.21,97.03,584.6-81.36,618.85-276.93,40.41-230.75,242-153.63,242-153.63v644.78H839.3Z"/>
              <path class="cls-13" d="m2058.97,635.34c-38.18-15.84-150.48-187.99-332.41-123.3-181.92,64.68-197.65,137.45-445.83,28.44-211.59-92.95-377.23,155.51-171.05,357.65,206.18,202.14,40.16,333.8,40.16,333.8l835,1.74,74.12-598.32Z"/>
              <path class="cls-4" d="m-120.75,929.62c76.42-15.28,189.63-117.18,311.34,10.19,121.7,127.37,308.51,10.19,314.17,155.39H-120.75v-165.57Z"/>
              <path class="cls-15" d="m529.46-17.57c28.64,200.12,328.54,51.88,441.89,275.92,125.79,248.63,335.22,281.65,531.75,147.06,161.94-110.91,343.63-264.8,522.19-57.1V-17.57H529.46Z"/>
            </g>
            <g class="cls-17">
              <ellipse class="cls-2" cx="947.76" cy="561.56" rx="12.04" ry="10.84"/>
              <ellipse class="cls-2" cx="1520.93" cy="1001.14" rx="20.54" ry="18.49"/>
              <ellipse class="cls-2" cx="543.76" cy="111.87" rx="20.54" ry="18.49"/>
              <path class="cls-2" d="m1520.93,492.03c0,10.21-9.2,18.49-20.54,18.49s-20.54-8.28-20.54-18.49,9.2-18.49,20.54-18.49,20.54,8.28,20.54,18.49Z"/>
              <ellipse class="cls-2" cx="691.01" cy="930.1" rx="10.27" ry="9.24"/>
              <path class="cls-2" d="m1245.43,801.3c0,5.11-4.6,9.24-10.27,9.24s-10.27-4.14-10.27-9.24,4.6-9.24,10.27-9.24,10.27,4.14,10.27,9.24Z"/>
              <path class="cls-3" d="m711.55,436.31c0,10.21-9.2,18.49-20.54,18.49s-20.54-8.28-20.54-18.49,9.2-18.49,20.54-18.49,20.54,8.28,20.54,18.49Z"/>
              <path class="cls-3" d="m1523.06,235.29c0,5.63-5.07,10.2-11.33,10.2s-11.34-4.57-11.34-10.2,5.08-10.2,11.34-10.2,11.33,4.57,11.33,10.2Z"/>
              <path class="cls-3" d="m1738.76,8.39c0,10.21-9.2,18.49-20.54,18.49s-20.54-8.28-20.54-18.49,9.2-18.49,20.54-18.49,20.54,8.28,20.54,18.49Z"/>
              <ellipse class="cls-3" cx="1718.21" cy="407.72" rx="63.34" ry="57"/>
              <path class="cls-3" d="m370.44,182.55c0,3.85-3.47,6.97-7.74,6.97s-7.74-3.12-7.74-6.97,3.47-6.97,7.74-6.97,7.74,3.12,7.74,6.97Z"/>
              <ellipse class="cls-3" cx="828.14" cy="209.83" rx="7.74" ry="6.97"/>
              <path class="cls-3" d="m1246.3,601.87c0,3.85-3.47,6.97-7.74,6.97s-7.74-3.12-7.74-6.97,3.47-6.97,7.74-6.97,7.74,3.12,7.74,6.97Z"/>
              <ellipse class="cls-3" cx="94.49" cy="216.8" rx="7.74" ry="6.97"/>
              <path class="cls-3" d="m498.46,785.32c0,3.85-3.47,6.97-7.74,6.97s-7.74-3.12-7.74-6.97,3.47-6.97,7.74-6.97,7.74,3.12,7.74,6.97Z"/>
            </g>
            <g class="cls-16">
              <g class="cls-7">
                <g>
                  <line class="cls-12" x1="565.12" y1="494.6" x2="1003.11" y2="100.4"/>
                  <line class="cls-12" x1="583.06" y1="494.6" x2="1021.06" y2="100.4"/>
                  <line class="cls-12" x1="601.01" y1="494.6" x2="1039" y2="100.4"/>
                  <line class="cls-12" x1="618.96" y1="494.6" x2="1056.95" y2="100.4"/>
                  <line class="cls-12" x1="636.91" y1="494.6" x2="1074.9" y2="100.4"/>
                  <line class="cls-12" x1="654.85" y1="494.6" x2="1092.85" y2="100.4"/>
                  <line class="cls-12" x1="672.8" y1="494.6" x2="1110.79" y2="100.4"/>
                  <line class="cls-12" x1="690.75" y1="494.6" x2="1128.74" y2="100.4"/>
                  <line class="cls-12" x1="708.7" y1="494.6" x2="1146.69" y2="100.4"/>
                  <line class="cls-12" x1="726.64" y1="494.6" x2="1164.63" y2="100.4"/>
                  <line class="cls-12" x1="744.59" y1="494.6" x2="1182.58" y2="100.4"/>
                  <line class="cls-12" x1="762.54" y1="494.6" x2="1200.53" y2="100.4"/>
                  <line class="cls-12" x1="780.49" y1="494.6" x2="1218.48" y2="100.4"/>
                  <line class="cls-12" x1="798.43" y1="494.6" x2="1236.42" y2="100.4"/>
                  <line class="cls-12" x1="816.38" y1="494.6" x2="1254.37" y2="100.4"/>
                  <line class="cls-12" x1="834.33" y1="494.6" x2="1272.32" y2="100.4"/>
                  <line class="cls-12" x1="852.28" y1="494.6" x2="1290.27" y2="100.4"/>
                  <line class="cls-12" x1="870.22" y1="494.6" x2="1308.21" y2="100.4"/>
                  <line class="cls-12" x1="888.17" y1="494.6" x2="1326.16" y2="100.4"/>
                  <line class="cls-12" x1="906.12" y1="494.6" x2="1344.11" y2="100.4"/>
                  <line class="cls-12" x1="924.07" y1="494.6" x2="1362.06" y2="100.4"/>
                  <line class="cls-12" x1="942.01" y1="494.6" x2="1380" y2="100.4"/>
                  <line class="cls-12" x1="959.96" y1="494.6" x2="1397.95" y2="100.4"/>
                  <line class="cls-12" x1="977.91" y1="494.6" x2="1415.9" y2="100.4"/>
                  <line class="cls-12" x1="995.86" y1="494.6" x2="1433.85" y2="100.4"/>
                  <line class="cls-12" x1="1013.8" y1="494.6" x2="1451.79" y2="100.4"/>
                  <line class="cls-12" x1="1031.75" y1="494.6" x2="1469.74" y2="100.4"/>
                  <line class="cls-12" x1="1049.7" y1="494.6" x2="1487.69" y2="100.4"/>
                  <line class="cls-12" x1="1067.65" y1="494.6" x2="1505.64" y2="100.4"/>
                  <line class="cls-12" x1="1085.59" y1="494.6" x2="1523.58" y2="100.4"/>
                  <line class="cls-12" x1="1103.54" y1="494.6" x2="1541.53" y2="100.4"/>
                  <line class="cls-12" x1="1121.49" y1="494.6" x2="1559.48" y2="100.4"/>
                  <line class="cls-12" x1="1139.44" y1="494.6" x2="1577.43" y2="100.4"/>
                  <line class="cls-12" x1="1157.38" y1="494.6" x2="1595.37" y2="100.4"/>
                  <line class="cls-12" x1="1175.33" y1="494.6" x2="1613.32" y2="100.4"/>
                  <line class="cls-12" x1="1193.28" y1="494.6" x2="1631.27" y2="100.4"/>
                  <line class="cls-12" x1="1211.22" y1="494.6" x2="1649.22" y2="100.4"/>
                  <line class="cls-12" x1="1229.17" y1="494.6" x2="1667.16" y2="100.4"/>
                  <line class="cls-12" x1="1247.12" y1="494.6" x2="1685.11" y2="100.4"/>
                  <line class="cls-12" x1="1265.07" y1="494.6" x2="1703.06" y2="100.4"/>
                  <line class="cls-12" x1="1283.01" y1="494.6" x2="1721.01" y2="100.4"/>
                  <line class="cls-12" x1="1300.96" y1="494.6" x2="1738.95" y2="100.4"/>
                  <line class="cls-12" x1="1318.91" y1="494.6" x2="1756.9" y2="100.4"/>
                  <line class="cls-12" x1="1336.86" y1="494.6" x2="1774.85" y2="100.4"/>
                  <line class="cls-12" x1="1354.8" y1="494.6" x2="1792.8" y2="100.4"/>
                </g>
              </g>
              <g class="cls-5">
                <g>
                  <line class="cls-12" x1="1014.3" y1="970.1" x2="1452.29" y2="575.91"/>
                  <line class="cls-12" x1="1032.25" y1="970.1" x2="1470.24" y2="575.91"/>
                  <line class="cls-12" x1="1050.19" y1="970.1" x2="1488.18" y2="575.91"/>
                  <line class="cls-12" x1="1068.14" y1="970.1" x2="1506.13" y2="575.91"/>
                  <line class="cls-12" x1="1086.09" y1="970.1" x2="1524.08" y2="575.91"/>
                  <line class="cls-12" x1="1104.04" y1="970.1" x2="1542.03" y2="575.91"/>
                  <line class="cls-12" x1="1121.98" y1="970.1" x2="1559.97" y2="575.91"/>
                  <line class="cls-12" x1="1139.93" y1="970.1" x2="1577.92" y2="575.91"/>
                  <line class="cls-12" x1="1157.88" y1="970.1" x2="1595.87" y2="575.91"/>
                  <line class="cls-12" x1="1175.83" y1="970.1" x2="1613.82" y2="575.91"/>
                  <line class="cls-12" x1="1193.77" y1="970.1" x2="1631.76" y2="575.91"/>
                  <line class="cls-12" x1="1211.72" y1="970.1" x2="1649.71" y2="575.91"/>
                  <line class="cls-12" x1="1229.67" y1="970.1" x2="1667.66" y2="575.91"/>
                  <line class="cls-12" x1="1247.61" y1="970.1" x2="1685.61" y2="575.91"/>
                  <line class="cls-12" x1="1265.56" y1="970.1" x2="1703.55" y2="575.91"/>
                  <line class="cls-12" x1="1283.51" y1="970.1" x2="1721.5" y2="575.91"/>
                  <line class="cls-12" x1="1301.46" y1="970.1" x2="1739.45" y2="575.91"/>
                  <line class="cls-12" x1="1319.4" y1="970.1" x2="1757.4" y2="575.91"/>
                  <line class="cls-12" x1="1337.35" y1="970.1" x2="1775.34" y2="575.91"/>
                  <line class="cls-12" x1="1355.3" y1="970.1" x2="1793.29" y2="575.91"/>
                  <line class="cls-12" x1="1373.25" y1="970.1" x2="1811.24" y2="575.91"/>
                  <line class="cls-12" x1="1391.19" y1="970.1" x2="1829.19" y2="575.91"/>
                  <line class="cls-12" x1="1409.14" y1="970.1" x2="1847.13" y2="575.91"/>
                  <line class="cls-12" x1="1427.09" y1="970.1" x2="1865.08" y2="575.91"/>
                  <line class="cls-12" x1="1445.04" y1="970.1" x2="1883.03" y2="575.91"/>
                  <line class="cls-12" x1="1462.98" y1="970.1" x2="1900.98" y2="575.91"/>
                  <line class="cls-12" x1="1480.93" y1="970.1" x2="1918.92" y2="575.91"/>
                  <line class="cls-12" x1="1498.88" y1="970.1" x2="1936.87" y2="575.91"/>
                  <line class="cls-12" x1="1516.83" y1="970.1" x2="1954.82" y2="575.91"/>
                  <line class="cls-12" x1="1534.77" y1="970.1" x2="1972.77" y2="575.91"/>
                  <line class="cls-12" x1="1552.72" y1="970.1" x2="1990.71" y2="575.91"/>
                  <line class="cls-12" x1="1570.67" y1="970.1" x2="2008.66" y2="575.91"/>
                  <line class="cls-12" x1="1588.62" y1="970.1" x2="2026.61" y2="575.91"/>
                  <line class="cls-12" x1="1606.56" y1="970.1" x2="2044.55" y2="575.91"/>
                  <line class="cls-12" x1="1624.51" y1="970.1" x2="2062.5" y2="575.91"/>
                  <line class="cls-12" x1="1642.46" y1="970.1" x2="2080.45" y2="575.91"/>
                  <line class="cls-12" x1="1660.41" y1="970.1" x2="2098.4" y2="575.91"/>
                  <line class="cls-12" x1="1678.35" y1="970.1" x2="2116.34" y2="575.91"/>
                  <line class="cls-12" x1="1696.3" y1="970.1" x2="2134.29" y2="575.91"/>
                  <line class="cls-12" x1="1714.25" y1="970.1" x2="2152.24" y2="575.91"/>
                  <line class="cls-12" x1="1732.2" y1="970.1" x2="2170.19" y2="575.91"/>
                  <line class="cls-12" x1="1750.14" y1="970.1" x2="2188.13" y2="575.91"/>
                  <line class="cls-12" x1="1768.09" y1="970.1" x2="2206.08" y2="575.91"/>
                  <line class="cls-12" x1="1786.04" y1="970.1" x2="2224.03" y2="575.91"/>
                  <line class="cls-12" x1="1803.99" y1="970.1" x2="2241.98" y2="575.91"/>
                </g>
              </g>
              <g class="cls-14">
                <g>
                  <line class="cls-12" x1="375.19" y1="1255.08" x2="813.18" y2="860.89"/>
                  <line class="cls-12" x1="393.14" y1="1255.08" x2="831.13" y2="860.89"/>
                  <line class="cls-12" x1="411.08" y1="1255.08" x2="849.07" y2="860.89"/>
                  <line class="cls-12" x1="429.03" y1="1255.08" x2="867.02" y2="860.89"/>
                  <line class="cls-12" x1="446.98" y1="1255.08" x2="884.97" y2="860.89"/>
                  <line class="cls-12" x1="464.92" y1="1255.08" x2="902.92" y2="860.89"/>
                  <line class="cls-12" x1="482.87" y1="1255.08" x2="920.86" y2="860.89"/>
                  <line class="cls-12" x1="500.82" y1="1255.08" x2="938.81" y2="860.89"/>
                  <line class="cls-12" x1="518.77" y1="1255.08" x2="956.76" y2="860.89"/>
                  <line class="cls-12" x1="536.71" y1="1255.08" x2="974.71" y2="860.89"/>
                  <line class="cls-12" x1="554.66" y1="1255.08" x2="992.65" y2="860.89"/>
                  <line class="cls-12" x1="572.61" y1="1255.08" x2="1010.6" y2="860.89"/>
                  <line class="cls-12" x1="590.56" y1="1255.08" x2="1028.55" y2="860.89"/>
                  <line class="cls-12" x1="608.5" y1="1255.08" x2="1046.5" y2="860.89"/>
                  <line class="cls-12" x1="626.45" y1="1255.08" x2="1064.44" y2="860.89"/>
                  <line class="cls-12" x1="644.4" y1="1255.08" x2="1082.39" y2="860.89"/>
                  <line class="cls-12" x1="662.35" y1="1255.08" x2="1100.34" y2="860.89"/>
                  <line class="cls-12" x1="680.29" y1="1255.08" x2="1118.29" y2="860.89"/>
                  <line class="cls-12" x1="698.24" y1="1255.08" x2="1136.23" y2="860.89"/>
                  <line class="cls-12" x1="716.19" y1="1255.08" x2="1154.18" y2="860.89"/>
                  <line class="cls-12" x1="734.14" y1="1255.08" x2="1172.13" y2="860.89"/>
                  <line class="cls-12" x1="752.08" y1="1255.08" x2="1190.08" y2="860.89"/>
                  <line class="cls-12" x1="770.03" y1="1255.08" x2="1208.02" y2="860.89"/>
                  <line class="cls-12" x1="787.98" y1="1255.08" x2="1225.97" y2="860.89"/>
                  <line class="cls-12" x1="805.93" y1="1255.08" x2="1243.92" y2="860.89"/>
                  <line class="cls-12" x1="823.87" y1="1255.08" x2="1261.86" y2="860.89"/>
                  <line class="cls-12" x1="841.82" y1="1255.08" x2="1279.81" y2="860.89"/>
                  <line class="cls-12" x1="859.77" y1="1255.08" x2="1297.76" y2="860.89"/>
                  <line class="cls-12" x1="877.72" y1="1255.08" x2="1315.71" y2="860.89"/>
                  <line class="cls-12" x1="895.66" y1="1255.08" x2="1333.66" y2="860.89"/>
                  <line class="cls-12" x1="913.61" y1="1255.08" x2="1351.6" y2="860.89"/>
                  <line class="cls-12" x1="931.56" y1="1255.08" x2="1369.55" y2="860.89"/>
                  <line class="cls-12" x1="949.51" y1="1255.08" x2="1387.5" y2="860.89"/>
                  <line class="cls-12" x1="967.45" y1="1255.08" x2="1405.44" y2="860.89"/>
                  <line class="cls-12" x1="985.4" y1="1255.08" x2="1423.39" y2="860.89"/>
                  <line class="cls-12" x1="1003.35" y1="1255.08" x2="1441.34" y2="860.89"/>
                  <line class="cls-12" x1="1021.3" y1="1255.08" x2="1459.29" y2="860.89"/>
                  <line class="cls-12" x1="1039.24" y1="1255.08" x2="1477.23" y2="860.89"/>
                  <line class="cls-12" x1="1057.19" y1="1255.08" x2="1495.18" y2="860.89"/>
                  <line class="cls-12" x1="1075.14" y1="1255.08" x2="1513.13" y2="860.89"/>
                  <line class="cls-12" x1="1093.09" y1="1255.08" x2="1531.08" y2="860.89"/>
                  <line class="cls-12" x1="1111.03" y1="1255.08" x2="1549.02" y2="860.89"/>
                  <line class="cls-12" x1="1128.98" y1="1255.08" x2="1566.97" y2="860.89"/>
                  <line class="cls-12" x1="1146.93" y1="1255.08" x2="1584.92" y2="860.89"/>
                  <line class="cls-12" x1="1164.88" y1="1255.08" x2="1602.87" y2="860.89"/>
                </g>
              </g>
              <g class="cls-8">
                <g>
                  <line class="cls-12" x1="-425.73" y1="1301.49" x2="12.26" y2="907.3"/>
                  <line class="cls-12" x1="-407.78" y1="1301.49" x2="30.21" y2="907.3"/>
                  <line class="cls-12" x1="-389.84" y1="1301.49" x2="48.15" y2="907.3"/>
                  <line class="cls-12" x1="-371.89" y1="1301.49" x2="66.1" y2="907.3"/>
                  <line class="cls-12" x1="-353.94" y1="1301.49" x2="84.05" y2="907.3"/>
                  <line class="cls-12" x1="-335.99" y1="1301.49" x2="102" y2="907.3"/>
                  <line class="cls-12" x1="-318.05" y1="1301.49" x2="119.94" y2="907.3"/>
                  <line class="cls-12" x1="-300.1" y1="1301.49" x2="137.89" y2="907.3"/>
                  <line class="cls-12" x1="-282.15" y1="1301.49" x2="155.84" y2="907.3"/>
                  <line class="cls-12" x1="-264.21" y1="1301.49" x2="173.79" y2="907.3"/>
                  <line class="cls-12" x1="-246.26" y1="1301.49" x2="191.73" y2="907.3"/>
                  <line class="cls-12" x1="-228.31" y1="1301.49" x2="209.68" y2="907.3"/>
                  <line class="cls-12" x1="-210.36" y1="1301.49" x2="227.63" y2="907.3"/>
                  <line class="cls-12" x1="-192.42" y1="1301.49" x2="245.58" y2="907.3"/>
                  <line class="cls-12" x1="-174.47" y1="1301.49" x2="263.52" y2="907.3"/>
                  <line class="cls-12" x1="-156.52" y1="1301.49" x2="281.47" y2="907.3"/>
                  <line class="cls-12" x1="-138.57" y1="1301.49" x2="299.42" y2="907.3"/>
                  <line class="cls-12" x1="-120.63" y1="1301.49" x2="317.37" y2="907.3"/>
                  <line class="cls-12" x1="-102.68" y1="1301.49" x2="335.31" y2="907.3"/>
                  <line class="cls-12" x1="-84.73" y1="1301.49" x2="353.26" y2="907.3"/>
                  <line class="cls-12" x1="-66.78" y1="1301.49" x2="371.21" y2="907.3"/>
                  <line class="cls-12" x1="-48.84" y1="1301.49" x2="389.16" y2="907.3"/>
                  <line class="cls-12" x1="-30.89" y1="1301.49" x2="407.1" y2="907.3"/>
                  <line class="cls-12" x1="-12.94" y1="1301.49" x2="425.05" y2="907.3"/>
                  <line class="cls-12" x1="5.01" y1="1301.49" x2="443" y2="907.3"/>
                  <line class="cls-12" x1="22.95" y1="1301.49" x2="460.95" y2="907.3"/>
                  <line class="cls-12" x1="40.9" y1="1301.49" x2="478.89" y2="907.3"/>
                  <line class="cls-12" x1="58.85" y1="1301.49" x2="496.84" y2="907.3"/>
                  <line class="cls-12" x1="76.8" y1="1301.49" x2="514.79" y2="907.3"/>
                  <line class="cls-12" x1="94.74" y1="1301.49" x2="532.73" y2="907.3"/>
                  <line class="cls-12" x1="112.69" y1="1301.49" x2="550.68" y2="907.3"/>
                  <line class="cls-12" x1="130.64" y1="1301.49" x2="568.63" y2="907.3"/>
                  <line class="cls-12" x1="148.59" y1="1301.49" x2="586.58" y2="907.3"/>
                  <line class="cls-12" x1="166.53" y1="1301.49" x2="604.52" y2="907.3"/>
                  <line class="cls-12" x1="184.48" y1="1301.49" x2="622.47" y2="907.3"/>
                  <line class="cls-12" x1="202.43" y1="1301.49" x2="640.42" y2="907.3"/>
                  <line class="cls-12" x1="220.38" y1="1301.49" x2="658.37" y2="907.3"/>
                  <line class="cls-12" x1="238.32" y1="1301.49" x2="676.31" y2="907.3"/>
                  <line class="cls-12" x1="256.27" y1="1301.49" x2="694.26" y2="907.3"/>
                  <line class="cls-12" x1="274.22" y1="1301.49" x2="712.21" y2="907.3"/>
                  <line class="cls-12" x1="292.17" y1="1301.49" x2="730.16" y2="907.3"/>
                  <line class="cls-12" x1="310.11" y1="1301.49" x2="748.1" y2="907.3"/>
                </g>
              </g>
            </g>
            <g class="cls-16">
              <g>
                <path class="cls-2" d="m1800.52,511.09c1.41,1.27,1.41,3.33,0,4.6-1.41,1.27-3.7,1.27-5.12,0s-1.41-3.33,0-4.6,3.7-1.27,5.12,0Z"/>
                <path class="cls-2" d="m1822.21,491.57c1.41,1.27,1.41,3.33,0,4.6-1.41,1.27-3.7,1.27-5.12,0-1.41-1.27-1.41-3.33,0-4.6s3.7-1.27,5.12,0Z"/>
                <path class="cls-2" d="m1822.21,491.57c1.41,1.27,1.41,3.33,0,4.6-1.41,1.27-3.7,1.27-5.12,0-1.41-1.27-1.41-3.33,0-4.6s3.7-1.27,5.12,0Z"/>
                <path class="cls-2" d="m1843.9,472.05c1.41,1.27,1.41,3.33,0,4.6-1.41,1.27-3.7,1.27-5.12,0-1.41-1.27-1.41-3.33,0-4.6s3.7-1.27,5.12,0Z"/>
                <path class="cls-2" d="m1843.9,472.05c1.41,1.27,1.41,3.33,0,4.6-1.41,1.27-3.7,1.27-5.12,0-1.41-1.27-1.41-3.33,0-4.6s3.7-1.27,5.12,0Z"/>
                <path class="cls-2" d="m1865.59,452.53c1.41,1.27,1.41,3.33,0,4.6-1.41,1.27-3.7,1.27-5.12,0-1.41-1.27-1.41-3.33,0-4.6,1.41-1.27,3.7-1.27,5.12,0Z"/>
                <path class="cls-2" d="m1865.59,452.53c1.41,1.27,1.41,3.33,0,4.6-1.41,1.27-3.7,1.27-5.12,0-1.41-1.27-1.41-3.33,0-4.6,1.41-1.27,3.7-1.27,5.12,0Z"/>
                <path class="cls-2" d="m1887.28,433.01c1.41,1.27,1.41,3.33,0,4.6-1.41,1.27-3.7,1.27-5.12,0-1.41-1.27-1.41-3.33,0-4.6s3.7-1.27,5.12,0Z"/>
                <path class="cls-2" d="m1908.97,413.49c1.41,1.27,1.41,3.33,0,4.6-1.41,1.27-3.7,1.27-5.12,0-1.41-1.27-1.41-3.33,0-4.6s3.7-1.27,5.12,0Z"/>
                <ellipse class="cls-2" cx="1819.65" cy="532.92" rx="3.62" ry="3.26"/>
                <ellipse class="cls-2" cx="1841.34" cy="513.4" rx="3.62" ry="3.26"/>
                <ellipse class="cls-2" cx="1841.34" cy="513.4" rx="3.62" ry="3.26"/>
                <path class="cls-2" d="m1865.59,491.57c1.41,1.27,1.41,3.33,0,4.6-1.41,1.27-3.7,1.27-5.12,0-1.41-1.27-1.41-3.33,0-4.6,1.41-1.27,3.7-1.27,5.12,0Z"/>
                <path class="cls-2" d="m1865.59,491.57c1.41,1.27,1.41,3.33,0,4.6-1.41,1.27-3.7,1.27-5.12,0-1.41-1.27-1.41-3.33,0-4.6,1.41-1.27,3.7-1.27,5.12,0Z"/>
                <path class="cls-2" d="m1887.28,472.05c1.41,1.27,1.41,3.33,0,4.6-1.41,1.27-3.7,1.27-5.12,0-1.41-1.27-1.41-3.33,0-4.6s3.7-1.27,5.12,0Z"/>
                <path class="cls-2" d="m1887.28,472.05c1.41,1.27,1.41,3.33,0,4.6-1.41,1.27-3.7,1.27-5.12,0-1.41-1.27-1.41-3.33,0-4.6s3.7-1.27,5.12,0Z"/>
                <path class="cls-2" d="m1908.97,452.53c1.41,1.27,1.41,3.33,0,4.6-1.41,1.27-3.7,1.27-5.12,0-1.41-1.27-1.41-3.33,0-4.6s3.7-1.27,5.12,0Z"/>
                <path class="cls-2" d="m1843.9,550.14c1.41,1.27,1.41,3.33,0,4.6s-3.7,1.27-5.12,0-1.41-3.33,0-4.6c1.41-1.27,3.7-1.27,5.12,0Z"/>
                <ellipse class="cls-2" cx="1863.03" cy="532.92" rx="3.62" ry="3.26"/>
                <ellipse class="cls-2" cx="1863.03" cy="532.92" rx="3.62" ry="3.26"/>
                <ellipse class="cls-2" cx="1884.72" cy="513.4" rx="3.62" ry="3.26"/>
                <ellipse class="cls-2" cx="1884.72" cy="513.4" rx="3.62" ry="3.26"/>
                <path class="cls-2" d="m1908.97,491.57c1.41,1.27,1.41,3.33,0,4.6-1.41,1.27-3.7,1.27-5.12,0-1.41-1.27-1.41-3.33,0-4.6s3.7-1.27,5.12,0Z"/>
                <path class="cls-2" d="m1908.97,491.57c1.41,1.27,1.41,3.33,0,4.6-1.41,1.27-3.7,1.27-5.12,0-1.41-1.27-1.41-3.33,0-4.6s3.7-1.27,5.12,0Z"/>
                <path class="cls-2" d="m1865.59,569.66c1.41,1.27,1.41,3.33,0,4.6s-3.7,1.27-5.12,0c-1.41-1.27-1.41-3.33,0-4.6,1.41-1.27,3.7-1.27,5.12,0Z"/>
                <path class="cls-2" d="m1887.28,550.14c1.41,1.27,1.41,3.33,0,4.6-1.41,1.27-3.7,1.27-5.12,0s-1.41-3.33,0-4.6c1.41-1.27,3.7-1.27,5.12,0Z"/>
                <path class="cls-2" d="m1887.28,550.14c1.41,1.27,1.41,3.33,0,4.6-1.41,1.27-3.7,1.27-5.12,0s-1.41-3.33,0-4.6c1.41-1.27,3.7-1.27,5.12,0Z"/>
                <ellipse class="cls-2" cx="1906.41" cy="532.92" rx="3.62" ry="3.26"/>
                <ellipse class="cls-2" cx="1906.41" cy="532.92" rx="3.62" ry="3.26"/>
                <path class="cls-2" d="m1887.28,589.18c1.41,1.27,1.41,3.33,0,4.6-1.41,1.27-3.7,1.27-5.12,0-1.41-1.27-1.41-3.33,0-4.6,1.41-1.27,3.7-1.27,5.12,0Z"/>
                <path class="cls-2" d="m1908.97,569.66c1.41,1.27,1.41,3.33,0,4.6-1.41,1.27-3.7,1.27-5.12,0s-1.41-3.33,0-4.6c1.41-1.27,3.7-1.27,5.12,0Z"/>
                <path class="cls-2" d="m1908.97,569.66c1.41,1.27,1.41,3.33,0,4.6-1.41,1.27-3.7,1.27-5.12,0s-1.41-3.33,0-4.6c1.41-1.27,3.7-1.27,5.12,0Z"/>
                <path class="cls-2" d="m1908.97,608.7c1.41,1.27,1.41,3.33,0,4.6-1.41,1.27-3.7,1.27-5.12,0s-1.41-3.33,0-4.6c1.41-1.27,3.7-1.27,5.12,0Z"/>
              </g>
              <g>
                <path class="cls-2" d="m713.12,3.58c1.41,1.27,1.41,3.33,0,4.6-1.41,1.27-3.7,1.27-5.12,0s-1.41-3.33,0-4.6c1.41-1.27,3.7-1.27,5.12,0Z"/>
                <path class="cls-2" d="m734.81,23.1c1.41,1.27,1.41,3.33,0,4.6-1.41,1.27-3.7,1.27-5.12,0-1.41-1.27-1.41-3.33,0-4.6,1.41-1.27,3.7-1.27,5.12,0Z"/>
                <path class="cls-2" d="m756.5,3.58c1.41,1.27,1.41,3.33,0,4.6-1.41,1.27-3.7,1.27-5.12,0s-1.41-3.33,0-4.6c1.41-1.27,3.7-1.27,5.12,0Z"/>
                <path class="cls-2" d="m756.5,3.58c1.41,1.27,1.41,3.33,0,4.6-1.41,1.27-3.7,1.27-5.12,0s-1.41-3.33,0-4.6c1.41-1.27,3.7-1.27,5.12,0Z"/>
                <path class="cls-2" d="m756.5,42.63c1.41,1.27,1.41,3.33,0,4.6-1.41,1.27-3.7,1.27-5.12,0-1.41-1.27-1.41-3.33,0-4.6,1.41-1.27,3.7-1.27,5.12,0Z"/>
                <path class="cls-2" d="m778.19,23.1c1.41,1.27,1.41,3.33,0,4.6s-3.7,1.27-5.12,0c-1.41-1.27-1.41-3.33,0-4.6,1.41-1.27,3.7-1.27,5.12,0Z"/>
                <path class="cls-2" d="m778.19,23.1c1.41,1.27,1.41,3.33,0,4.6s-3.7,1.27-5.12,0c-1.41-1.27-1.41-3.33,0-4.6,1.41-1.27,3.7-1.27,5.12,0Z"/>
                <path class="cls-2" d="m799.88,3.58c1.41,1.27,1.41,3.33,0,4.6-1.41,1.27-3.7,1.27-5.12,0s-1.41-3.33,0-4.6c1.41-1.27,3.7-1.27,5.12,0Z"/>
                <path class="cls-2" d="m799.88,3.58c1.41,1.27,1.41,3.33,0,4.6-1.41,1.27-3.7,1.27-5.12,0s-1.41-3.33,0-4.6c1.41-1.27,3.7-1.27,5.12,0Z"/>
                <path class="cls-2" d="m778.19,62.15c1.41,1.27,1.41,3.33,0,4.6-1.41,1.27-3.7,1.27-5.12,0-1.41-1.27-1.41-3.33,0-4.6,1.41-1.27,3.7-1.27,5.12,0Z"/>
                <path class="cls-2" d="m799.88,42.63c1.41,1.27,1.41,3.33,0,4.6s-3.7,1.27-5.12,0c-1.41-1.27-1.41-3.33,0-4.6,1.41-1.27,3.7-1.27,5.12,0Z"/>
                <path class="cls-2" d="m799.88,42.63c1.41,1.27,1.41,3.33,0,4.6s-3.7,1.27-5.12,0c-1.41-1.27-1.41-3.33,0-4.6,1.41-1.27,3.7-1.27,5.12,0Z"/>
                <path class="cls-2" d="m821.57,23.1c1.41,1.27,1.41,3.33,0,4.6-1.41,1.27-3.7,1.27-5.12,0-1.41-1.27-1.41-3.33,0-4.6,1.41-1.27,3.7-1.27,5.12,0Z"/>
                <path class="cls-2" d="m821.57,23.1c1.41,1.27,1.41,3.33,0,4.6-1.41,1.27-3.7,1.27-5.12,0-1.41-1.27-1.41-3.33,0-4.6,1.41-1.27,3.7-1.27,5.12,0Z"/>
                <path class="cls-2" d="m843.26,3.58c1.41,1.27,1.41,3.33,0,4.6s-3.7,1.27-5.12,0c-1.41-1.27-1.41-3.33,0-4.6,1.41-1.27,3.7-1.27,5.12,0Z"/>
                <path class="cls-2" d="m843.26,3.58c1.41,1.27,1.41,3.33,0,4.6s-3.7,1.27-5.12,0c-1.41-1.27-1.41-3.33,0-4.6,1.41-1.27,3.7-1.27,5.12,0Z"/>
                <path class="cls-2" d="m799.88,81.67c1.41,1.27,1.41,3.33,0,4.6-1.41,1.27-3.7,1.27-5.12,0-1.41-1.27-1.41-3.33,0-4.6,1.41-1.27,3.7-1.27,5.12,0Z"/>
                <path class="cls-2" d="m821.57,62.15c1.41,1.27,1.41,3.33,0,4.6-1.41,1.27-3.7,1.27-5.12,0-1.41-1.27-1.41-3.33,0-4.6,1.41-1.27,3.7-1.27,5.12,0Z"/>
                <path class="cls-2" d="m821.57,62.15c1.41,1.27,1.41,3.33,0,4.6-1.41,1.27-3.7,1.27-5.12,0-1.41-1.27-1.41-3.33,0-4.6,1.41-1.27,3.7-1.27,5.12,0Z"/>
                <path class="cls-2" d="m843.26,42.63c1.41,1.27,1.41,3.33,0,4.6-1.41,1.27-3.7,1.27-5.12,0s-1.41-3.33,0-4.6c1.41-1.27,3.7-1.27,5.12,0Z"/>
                <path class="cls-2" d="m843.26,42.63c1.41,1.27,1.41,3.33,0,4.6-1.41,1.27-3.7,1.27-5.12,0s-1.41-3.33,0-4.6c1.41-1.27,3.7-1.27,5.12,0Z"/>
                <path class="cls-2" d="m864.95,23.1c1.41,1.27,1.41,3.33,0,4.6-1.41,1.27-3.7,1.27-5.12,0s-1.41-3.33,0-4.6c1.41-1.27,3.7-1.27,5.12,0Z"/>
                <path class="cls-2" d="m864.95,23.1c1.41,1.27,1.41,3.33,0,4.6-1.41,1.27-3.7,1.27-5.12,0s-1.41-3.33,0-4.6c1.41-1.27,3.7-1.27,5.12,0Z"/>
                <path class="cls-2" d="m886.64,3.58c1.41,1.27,1.41,3.33,0,4.6s-3.7,1.27-5.12,0c-1.41-1.27-1.41-3.33,0-4.6,1.41-1.27,3.7-1.27,5.12,0Z"/>
                <path class="cls-2" d="m821.57,101.19c1.41,1.27,1.41,3.33,0,4.6-1.41,1.27-3.7,1.27-5.12,0-1.41-1.27-1.41-3.33,0-4.6,1.41-1.27,3.7-1.27,5.12,0Z"/>
                <path class="cls-2" d="m843.26,81.67c1.41,1.27,1.41,3.33,0,4.6-1.41,1.27-3.7,1.27-5.12,0-1.41-1.27-1.41-3.33,0-4.6,1.41-1.27,3.7-1.27,5.12,0Z"/>
                <path class="cls-2" d="m843.26,81.67c1.41,1.27,1.41,3.33,0,4.6-1.41,1.27-3.7,1.27-5.12,0-1.41-1.27-1.41-3.33,0-4.6,1.41-1.27,3.7-1.27,5.12,0Z"/>
                <path class="cls-2" d="m864.95,62.15c1.41,1.27,1.41,3.33,0,4.6-1.41,1.27-3.7,1.27-5.12,0-1.41-1.27-1.41-3.33,0-4.6,1.41-1.27,3.7-1.27,5.12,0Z"/>
                <path class="cls-2" d="m864.95,62.15c1.41,1.27,1.41,3.33,0,4.6-1.41,1.27-3.7,1.27-5.12,0-1.41-1.27-1.41-3.33,0-4.6,1.41-1.27,3.7-1.27,5.12,0Z"/>
                <path class="cls-2" d="m886.64,42.63c1.41,1.27,1.41,3.33,0,4.6-1.41,1.27-3.7,1.27-5.12,0-1.41-1.27-1.41-3.33,0-4.6,1.41-1.27,3.7-1.27,5.12,0Z"/>
                <path class="cls-2" d="m886.64,42.63c1.41,1.27,1.41,3.33,0,4.6-1.41,1.27-3.7,1.27-5.12,0-1.41-1.27-1.41-3.33,0-4.6,1.41-1.27,3.7-1.27,5.12,0Z"/>
                <path class="cls-2" d="m908.33,23.1c1.41,1.27,1.41,3.33,0,4.6-1.41,1.27-3.7,1.27-5.12,0-1.41-1.27-1.41-3.33,0-4.6s3.7-1.27,5.12,0Z"/>
                <path class="cls-2" d="m930.02,3.58c1.41,1.27,1.41,3.33,0,4.6s-3.7,1.27-5.12,0c-1.41-1.27-1.41-3.33,0-4.6,1.41-1.27,3.7-1.27,5.12,0Z"/>
              </g>
              <g>
                <path class="cls-2" d="m454.67,1061.98c1.41,1.27,1.41,3.33,0,4.6-1.41,1.27-3.7,1.27-5.12,0-1.41-1.27-1.41-3.33,0-4.6,1.41-1.27,3.7-1.27,5.12,0Z"/>
                <path class="cls-2" d="m476.36,1042.46c1.41,1.27,1.41,3.33,0,4.6-1.41,1.27-3.7,1.27-5.12,0-1.41-1.27-1.41-3.33,0-4.6,1.41-1.27,3.7-1.27,5.12,0Z"/>
                <path class="cls-2" d="m476.36,1042.46c1.41,1.27,1.41,3.33,0,4.6-1.41,1.27-3.7,1.27-5.12,0-1.41-1.27-1.41-3.33,0-4.6,1.41-1.27,3.7-1.27,5.12,0Z"/>
                <path class="cls-2" d="m498.05,1022.94c1.41,1.27,1.41,3.33,0,4.6s-3.7,1.27-5.12,0c-1.41-1.27-1.41-3.33,0-4.6,1.41-1.27,3.7-1.27,5.12,0Z"/>
                <path class="cls-2" d="m498.05,1022.94c1.41,1.27,1.41,3.33,0,4.6s-3.7,1.27-5.12,0c-1.41-1.27-1.41-3.33,0-4.6,1.41-1.27,3.7-1.27,5.12,0Z"/>
                <path class="cls-2" d="m519.74,1003.42c1.41,1.27,1.41,3.33,0,4.6-1.41,1.27-3.7,1.27-5.12,0s-1.41-3.33,0-4.6,3.7-1.27,5.12,0Z"/>
                <path class="cls-2" d="m519.74,1003.42c1.41,1.27,1.41,3.33,0,4.6-1.41,1.27-3.7,1.27-5.12,0s-1.41-3.33,0-4.6,3.7-1.27,5.12,0Z"/>
                <path class="cls-2" d="m541.43,983.89c1.41,1.27,1.41,3.33,0,4.6s-3.7,1.27-5.12,0c-1.41-1.27-1.41-3.33,0-4.6,1.41-1.27,3.7-1.27,5.12,0Z"/>
                <path class="cls-2" d="m563.12,964.37c1.41,1.27,1.41,3.33,0,4.6-1.41,1.27-3.7,1.27-5.12,0-1.41-1.27-1.41-3.33,0-4.6,1.41-1.27,3.7-1.27,5.12,0Z"/>
                <path class="cls-2" d="m498.05,1061.98c1.41,1.27,1.41,3.33,0,4.6-1.41,1.27-3.7,1.27-5.12,0-1.41-1.27-1.41-3.33,0-4.6,1.41-1.27,3.7-1.27,5.12,0Z"/>
                <path class="cls-2" d="m498.05,1061.98c1.41,1.27,1.41,3.33,0,4.6-1.41,1.27-3.7,1.27-5.12,0-1.41-1.27-1.41-3.33,0-4.6,1.41-1.27,3.7-1.27,5.12,0Z"/>
                <path class="cls-2" d="m519.74,1042.46c1.41,1.27,1.41,3.33,0,4.6-1.41,1.27-3.7,1.27-5.12,0-1.41-1.27-1.41-3.33,0-4.6,1.41-1.27,3.7-1.27,5.12,0Z"/>
                <path class="cls-2" d="m519.74,1042.46c1.41,1.27,1.41,3.33,0,4.6-1.41,1.27-3.7,1.27-5.12,0-1.41-1.27-1.41-3.33,0-4.6,1.41-1.27,3.7-1.27,5.12,0Z"/>
                <path class="cls-2" d="m541.43,1022.94c1.41,1.27,1.41,3.33,0,4.6s-3.7,1.27-5.12,0c-1.41-1.27-1.41-3.33,0-4.6,1.41-1.27,3.7-1.27,5.12,0Z"/>
                <path class="cls-2" d="m541.43,1022.94c1.41,1.27,1.41,3.33,0,4.6s-3.7,1.27-5.12,0c-1.41-1.27-1.41-3.33,0-4.6,1.41-1.27,3.7-1.27,5.12,0Z"/>
                <path class="cls-2" d="m563.12,1003.42c1.41,1.27,1.41,3.33,0,4.6s-3.7,1.27-5.12,0c-1.41-1.27-1.41-3.33,0-4.6,1.41-1.27,3.7-1.27,5.12,0Z"/>
                <path class="cls-2" d="m584.81,983.89c1.41,1.27,1.41,3.33,0,4.6-1.41,1.27-3.7,1.27-5.12,0-1.41-1.27-1.41-3.33,0-4.6,1.41-1.27,3.7-1.27,5.12,0Z"/>
                <path class="cls-2" d="m541.43,1061.98c1.41,1.27,1.41,3.33,0,4.6-1.41,1.27-3.7,1.27-5.12,0-1.41-1.27-1.41-3.33,0-4.6,1.41-1.27,3.7-1.27,5.12,0Z"/>
                <path class="cls-2" d="m541.43,1061.98c1.41,1.27,1.41,3.33,0,4.6-1.41,1.27-3.7,1.27-5.12,0-1.41-1.27-1.41-3.33,0-4.6,1.41-1.27,3.7-1.27,5.12,0Z"/>
                <path class="cls-2" d="m563.12,1042.46c1.41,1.27,1.41,3.33,0,4.6-1.41,1.27-3.7,1.27-5.12,0-1.41-1.27-1.41-3.33,0-4.6,1.41-1.27,3.7-1.27,5.12,0Z"/>
                <path class="cls-2" d="m563.12,1042.46c1.41,1.27,1.41,3.33,0,4.6-1.41,1.27-3.7,1.27-5.12,0-1.41-1.27-1.41-3.33,0-4.6,1.41-1.27,3.7-1.27,5.12,0Z"/>
                <path class="cls-2" d="m584.81,1022.94c1.41,1.27,1.41,3.33,0,4.6-1.41,1.27-3.7,1.27-5.12,0-1.41-1.27-1.41-3.33,0-4.6,1.41-1.27,3.7-1.27,5.12,0Z"/>
                <path class="cls-2" d="m606.5,1003.42c1.41,1.27,1.41,3.33,0,4.6s-3.7,1.27-5.12,0c-1.41-1.27-1.41-3.33,0-4.6,1.41-1.27,3.7-1.27,5.12,0Z"/>
                <path class="cls-2" d="m584.81,1061.98c1.41,1.27,1.41,3.33,0,4.6-1.41,1.27-3.7,1.27-5.12,0-1.41-1.27-1.41-3.33,0-4.6,1.41-1.27,3.7-1.27,5.12,0Z"/>
                <path class="cls-2" d="m584.81,1061.98c1.41,1.27,1.41,3.33,0,4.6-1.41,1.27-3.7,1.27-5.12,0-1.41-1.27-1.41-3.33,0-4.6,1.41-1.27,3.7-1.27,5.12,0Z"/>
                <path class="cls-2" d="m606.5,1042.46c1.41,1.27,1.41,3.33,0,4.6s-3.7,1.27-5.12,0c-1.41-1.27-1.41-3.33,0-4.6s3.7-1.27,5.12,0Z"/>
                <path class="cls-2" d="m628.19,1022.94c1.41,1.27,1.41,3.33,0,4.6-1.41,1.27-3.7,1.27-5.12,0-1.41-1.27-1.41-3.33,0-4.6,1.41-1.27,3.7-1.27,5.12,0Z"/>
                <path class="cls-2" d="m628.19,1061.98c1.41,1.27,1.41,3.33,0,4.6-1.41,1.27-3.7,1.27-5.12,0-1.41-1.27-1.41-3.33,0-4.6s3.7-1.27,5.12,0Z"/>
                <path class="cls-2" d="m649.88,1042.46c1.41,1.27,1.41,3.33,0,4.6-1.41,1.27-3.7,1.27-5.12,0-1.41-1.27-1.41-3.33,0-4.6,1.41-1.27,3.7-1.27,5.12,0Z"/>
                <path class="cls-2" d="m671.57,1061.98c1.41,1.27,1.41,3.33,0,4.6-1.41,1.27-3.7,1.27-5.12,0-1.41-1.27-1.41-3.33,0-4.6s3.7-1.27,5.12,0Z"/>
              </g>
            </g>
          </g>
        </g>
      </g>
    </g>
  </g>
</svg>